<svg id="bank-svgrepo-com" xmlns="http://www.w3.org/2000/svg" width="110" height="110" viewBox="0 0 110 110">
  <ellipse id="Ellipse_18" data-name="Ellipse 18" cx="55" cy="54.646" rx="55" ry="54.646" fill="#88c5cc"/>
  <rect id="Rectangle_158" data-name="Rectangle 158" width="57" height="50" transform="translate(27 42.499)" fill="#406a80"/>
  <rect id="Rectangle_159" data-name="Rectangle 159" width="14" height="43" transform="translate(23 46.509)" fill="#e6e6e6"/>
  <g id="Group_81" data-name="Group 81" transform="translate(25 46.509)">
    <rect id="Rectangle_160" data-name="Rectangle 160" width="2" height="43" fill="#ccc"/>
    <rect id="Rectangle_161" data-name="Rectangle 161" width="3" height="43" transform="translate(4)" fill="#ccc"/>
    <rect id="Rectangle_162" data-name="Rectangle 162" width="1" height="43" transform="translate(9)" fill="#ccc"/>
  </g>
  <g id="Group_82" data-name="Group 82" transform="translate(8.649 46.292)">
    <rect id="Rectangle_163" data-name="Rectangle 163" width="15" height="43" transform="translate(64.351)" fill="#e6e6e6"/>
    <path id="Path_90" data-name="Path 90" d="M40,480.649V473.73A1.735,1.735,0,0,1,41.73,472h89.95a1.735,1.735,0,0,1,1.73,1.73v6.919Z" transform="translate(-40 -416.941)" fill="#e6e6e6"/>
    <path id="Path_91" data-name="Path 91" d="M64,440.649V433.73A1.735,1.735,0,0,1,65.73,432H145.3a1.735,1.735,0,0,1,1.73,1.73v6.919Z" transform="translate(-58.811 -385.59)" fill="#e6e6e6"/>
  </g>
  <path id="Path_92" data-name="Path 92" d="M147.064,74.454,109.008,48.507a1.729,1.729,0,0,0-2.446,0L68.507,74.454A1.752,1.752,0,0,0,68,75.677a1.692,1.692,0,0,0,.507,1.223,1.723,1.723,0,0,0,1.223.507h76.111a1.723,1.723,0,0,0,1.223-.507,1.693,1.693,0,0,0,.507-1.223A1.752,1.752,0,0,0,147.064,74.454Z" transform="translate(-53.296 -37.621)" fill="#f5f5f5"/>
  <g id="Group_83" data-name="Group 83" transform="translate(11.244 14.239)">
    <path id="Path_93" data-name="Path 93" d="M102.184,87.939l32.394-22.087,32.394,22.087Z" transform="translate(-91.333 -65.852)" fill="#ccc"/>
    <path id="Path_94" data-name="Path 94" d="M138.49,185.73a1.735,1.735,0,0,1-1.73,1.73H53.73A1.735,1.735,0,0,1,52,185.73h0A1.735,1.735,0,0,1,53.73,184H136.76a1.735,1.735,0,0,1,1.73,1.73Z" transform="translate(-52 -158.453)" fill="#ccc"/>
  </g>
  <rect id="Rectangle_164" data-name="Rectangle 164" width="13" height="43" transform="translate(49 46.509)" fill="#e6e6e6"/>
  <g id="Group_84" data-name="Group 84" transform="translate(50 46.509)">
    <rect id="Rectangle_165" data-name="Rectangle 165" width="2" height="43" fill="#ccc"/>
    <rect id="Rectangle_166" data-name="Rectangle 166" width="2" height="43" transform="translate(4)" fill="#ccc"/>
    <rect id="Rectangle_167" data-name="Rectangle 167" width="2" height="43" transform="translate(9)" fill="#ccc"/>
    <rect id="Rectangle_168" data-name="Rectangle 168" width="2" height="43" transform="translate(25)" fill="#ccc"/>
    <rect id="Rectangle_169" data-name="Rectangle 169" width="1" height="43" transform="translate(30)" fill="#ccc"/>
    <rect id="Rectangle_170" data-name="Rectangle 170" width="2" height="43" transform="translate(34)" fill="#ccc"/>
  </g>
  <g id="Group_85" data-name="Group 85" transform="translate(21.623 42.74)">
    <path id="Path_95" data-name="Path 95" d="M117.3,417.73a1.735,1.735,0,0,1-1.73,1.73H101.73a1.735,1.735,0,0,1-1.73-1.73h0a1.735,1.735,0,0,1,1.73-1.73h13.838a1.735,1.735,0,0,1,1.73,1.73Z" transform="translate(-100 -369.295)" fill="#f5f5f5"/>
    <path id="Path_96" data-name="Path 96" d="M117.3,201.73a1.735,1.735,0,0,1-1.73,1.73H101.73a1.735,1.735,0,0,1-1.73-1.73h0a1.735,1.735,0,0,1,1.73-1.73h13.838a1.735,1.735,0,0,1,1.73,1.73Z" transform="translate(-100 -200)" fill="#f5f5f5"/>
    <path id="Path_97" data-name="Path 97" d="M233.3,417.73a1.735,1.735,0,0,1-1.73,1.73H217.73a1.735,1.735,0,0,1-1.73-1.73h0a1.735,1.735,0,0,1,1.73-1.73h13.838a1.735,1.735,0,0,1,1.73,1.73Z" transform="translate(-190.918 -369.295)" fill="#f5f5f5"/>
    <path id="Path_98" data-name="Path 98" d="M233.3,201.73a1.735,1.735,0,0,1-1.73,1.73H217.73a1.735,1.735,0,0,1-1.73-1.73h0a1.735,1.735,0,0,1,1.73-1.73h13.838a1.735,1.735,0,0,1,1.73,1.73Z" transform="translate(-190.918 -200)" fill="#f5f5f5"/>
    <path id="Path_99" data-name="Path 99" d="M349.3,417.73a1.735,1.735,0,0,1-1.73,1.73H333.73a1.735,1.735,0,0,1-1.73-1.73h0a1.735,1.735,0,0,1,1.73-1.73h13.838a1.735,1.735,0,0,1,1.73,1.73Z" transform="translate(-281.836 -369.295)" fill="#f5f5f5"/>
    <path id="Path_100" data-name="Path 100" d="M349.3,201.73a1.735,1.735,0,0,1-1.73,1.73H333.73a1.735,1.735,0,0,1-1.73-1.73h0a1.735,1.735,0,0,1,1.73-1.73h13.838a1.735,1.735,0,0,1,1.73,1.73Z" transform="translate(-281.836 -200)" fill="#f5f5f5"/>
  </g>
  <rect id="Rectangle_171" data-name="Rectangle 171" width="83" height="1" transform="translate(14 100.292)" fill="#ccc"/>
  <g id="Group_86" data-name="Group 86" transform="translate(51.894 19.75)">
    <path id="Path_101" data-name="Path 101" d="M242.595,108.649A2.6,2.6,0,0,1,240,106.054a.865.865,0,0,1,1.73,0,.865.865,0,1,0,.865-.865,2.595,2.595,0,1,1,2.595-2.595.865.865,0,0,1-1.73,0,.865.865,0,1,0-.865.865,2.595,2.595,0,1,1,0,5.189Z" transform="translate(-240 -98.27)" fill="#2179a6"/>
    <path id="Path_102" data-name="Path 102" d="M248.865,95.46a.865.865,0,0,1-.865-.865v-1.73a.865.865,0,0,1,1.73,0v1.73A.865.865,0,0,1,248.865,95.46Z" transform="translate(-246.27 -92)" fill="#2179a6"/>
    <path id="Path_103" data-name="Path 103" d="M248.865,135.46a.865.865,0,0,1-.865-.865v-1.73a.865.865,0,1,1,1.73,0v1.73A.865.865,0,0,1,248.865,135.46Z" transform="translate(-246.27 -123.351)" fill="#2179a6"/>
  </g>
</svg>
