<svg width="681" height="278" viewBox="0 0 681 278" fill="none" xmlns="http://www.w3.org/2000/svg">
<path d="M124.77 55.6963C124.691 56.0091 129.774 52.8589 129.774 52.8589L131.919 49.5075C131.919 49.5075 134.019 48.1558 135.516 47.4186C137.013 46.6813 139.795 42.1905 139.795 42.1905L138.678 40.8165C138.038 41.6162 137.336 42.3633 136.577 43.0507C136.064 43.2091 135.515 43.2091 135.002 43.0507C135.335 41.9083 135.742 40.7888 136.22 39.6994C137.161 37.8502 138.284 36.0989 139.571 34.4713L138.611 33.4659C137.872 34.1735 137.171 34.9192 136.51 35.7001C135.963 36.4374 134.891 37.9343 134.891 37.9343C135.403 36.6505 136.004 35.4038 136.689 34.2032C137.371 33.1978 138.119 31.8238 138.119 31.8238L137.002 31.053C136.284 31.9449 135.624 32.8814 135.025 33.8569C134.354 35.0634 133.114 37.063 133.114 37.063C133.516 35.7239 133.989 34.4075 134.533 33.1196C134.991 32.2371 135.17 31.7791 135.17 31.7791L133.852 31.3323C133.191 32.1738 132.663 33.1119 132.288 34.1139C132.019 34.9084 131.683 35.6783 131.282 36.4151C131.436 35.2713 131.713 34.1476 132.109 33.0638C132.334 32.7252 132.489 32.3456 132.567 31.9467L131.45 31.7456C131.45 31.7456 129.394 35.5326 128.311 37.8785C127.227 40.2244 126.389 43.397 125.775 45.1173C125.168 47.61 124.701 50.1349 124.379 52.6801L124.77 55.6963Z" fill="#C7A89C"/>
<path d="M156.44 78.184L130.422 73.7155C129.987 69.287 129.893 64.8314 130.143 60.3885C130.601 52.5687 131.55 50.4239 131.55 50.4239L124.569 49.4632C124.569 49.4632 123.195 55.5961 122.2 59.9975C119.966 69.7722 118 78.9883 119.676 80.9767C122.111 83.937 143.76 89.9136 151.178 95.4991C155.635 98.8392 155.378 88.1374 156.44 78.184Z" fill="#848ECA"/>
<path d="M193.337 152.17L192.03 161.174L194.745 167.34L196.733 164.659L197.191 159.632L200.129 160.068L201.57 158.258L201.447 154.493L200.956 144.238L193.337 152.17Z" fill="#C7A89C"/>
<path d="M191.516 83.5683C189.506 82.8199 182.97 83.3114 182.97 83.3114C182.97 83.3114 182.356 90.2933 185.004 95.6889C187.651 101.085 194.253 120.746 195.058 122.589C195.862 124.432 193.304 152.17 193.304 152.17L202.866 150.215C202.866 150.215 207.48 128.822 207.435 123.404C207.39 117.986 202.319 97.6103 198.699 91.1311C195.08 84.6519 196.387 85.3669 191.516 83.5683Z" fill="#848ECA"/>
<path d="M175.765 63.5608C175.765 63.5608 173.665 72.7769 175.307 74.9217C176.279 76.1841 180.356 80.6637 180.356 80.6637C180.356 80.6637 166.817 87.8131 162.84 87.8131C158.863 87.8131 160.248 79.8258 160.248 79.8258C160.248 79.8258 164.594 76.3963 165.242 74.6648C165.772 72.4642 166.108 70.2214 166.247 67.9622L175.765 63.5608Z" fill="#C7A89C"/>
<path d="M177.341 63.8963C177.341 63.8963 177.184 60.545 179.999 60.6232C181.798 60.679 181.932 62.3323 180.535 64.4548C179.943 65.3485 179.888 67.3705 179.161 68.0184C178.435 68.6663 177.519 67.5939 177.251 67.0354C177.032 65.9967 177.063 64.9208 177.341 63.8963Z" fill="#C7A89C"/>
<path d="M162.192 63.8963C162.192 63.8963 162.349 60.545 159.534 60.6232C157.735 60.679 157.59 62.3323 158.997 64.4548C159.578 65.3485 159.645 67.3705 160.371 68.0184C161.265 68.8115 162.014 67.5939 162.282 67.0354C162.501 65.9967 162.47 64.9208 162.192 63.8963Z" fill="#C7A89C"/>
<path d="M180.2 55.6737C180.077 56.8225 179.89 57.9637 179.642 59.0921C179.575 59.4831 179.496 59.9299 179.418 60.4438C178.837 64.4765 178.1 69.9615 177.787 70.777C177.262 72.1399 174.38 74.3294 173.006 75.1337C171.007 75.8838 168.795 75.8237 166.84 74.9661C165.466 74.1618 162.371 72.1399 161.846 70.777C161.522 69.9503 160.729 64.309 160.171 60.2092C160.104 59.74 160.048 59.3379 159.981 58.9804C159.732 57.8746 159.545 56.7557 159.422 55.6291C159.221 52.2778 163.053 47.2731 169.822 47.2731C177.821 47.3178 180.412 52.2666 180.2 55.6737Z" fill="#C7A89C"/>
<g style="mix-blend-mode:multiply">
<path d="M162.818 51.3844C164.811 50.6405 166.932 50.298 169.058 50.3766C171.184 50.4553 173.274 50.9534 175.207 51.8424L177.597 50.3231C174.942 49.0973 172.043 48.4863 169.119 48.5357C164.114 48.5692 162.818 51.3844 162.818 51.3844Z" fill="#E8D4E5"/>
</g>
<path d="M179.641 59.0928C179.574 59.4838 179.496 59.9306 179.418 60.4445C178.837 64.4772 178.1 69.9622 177.787 70.7777C177.262 72.1406 174.38 74.3301 173.006 75.1344C171.007 75.8846 168.795 75.8244 166.839 74.9668C165.465 74.1625 162.371 72.1406 161.846 70.7777C161.522 69.951 160.729 64.3097 160.17 60.2099C160.103 59.7407 160.047 59.3386 159.98 58.9811L160.539 58.1544C160.539 58.1544 161.533 63.9969 163.053 65.8178C164.572 67.6386 164.873 67.7169 164.873 67.7169L167.99 66.946L168.247 66.879C169.438 66.5721 170.687 66.5721 171.878 66.879L172.079 66.9349L172.302 67.0019L174.67 67.6833C174.67 67.6833 175.218 67.594 176.748 65.7842C178.279 63.9745 178.982 58.1209 178.982 58.1209L179.641 59.0928Z" fill="#7B2B1A"/>
<path d="M180.692 53.4957C180.692 53.6074 180.122 57.5955 179.898 58.2211C179.552 59.1818 179.284 59.8855 179.284 59.8855L178.882 58.9919C178.123 57.3388 177.709 55.5486 177.664 53.7303L177.597 50.3231L178.714 49.3177C180.971 49.6529 181.205 50.9487 180.692 53.4957Z" fill="#7B2B1A"/>
<path d="M162.952 50.4911L162.405 53.9988C162.156 55.629 161.603 57.1978 160.774 58.6236V58.7018L160.148 59.8189L159.713 58.3108C159.523 57.6629 159.065 54.3339 158.953 53.8424C158.953 53.6972 158.886 53.552 158.864 53.4179C158.383 50.9156 158.864 49.8655 161.098 49.5416L162.952 50.4911Z" fill="#7B2B1A"/>
<path d="M178.726 49.3179L177.608 50.3233L175.441 51.0941C173.039 50.0628 170.434 49.5929 167.823 49.7201C163.477 50.0552 162.885 51.3063 162.829 51.3845L162.382 51.2952L160.249 50.826L159.813 50.7255C160.016 49.8989 160.301 49.0944 160.662 48.3237C162.371 45.7543 167.007 44.0899 171.23 44.5144H171.654C173.769 44.6915 175.776 45.5232 177.396 46.8938L178.726 49.3179Z" fill="#7B2B1A"/>
<path d="M189.282 268.148V276.593H173.051C173.051 276.593 173.665 273.532 181.362 272.124L182.479 268.148H189.282Z" fill="#133A50"/>
<path d="M164.594 268.148V276.593H148.363C148.363 276.593 148.977 273.532 156.674 272.124L157.791 268.148H164.594Z" fill="#133A50"/>
<path d="M186.556 142.406C186.556 142.406 188.791 169.618 188.914 191.804C189.036 213.99 190.31 270.08 190.31 270.08H181.373C181.373 270.08 172.135 216.213 168.783 201.936C165.432 187.66 156.685 142.663 156.685 142.663L186.556 142.406Z" fill="#133A50"/>
<path d="M167.074 171.63C167.074 171.63 165.399 205.433 165.064 212.091C164.728 218.749 165.064 270.047 165.064 270.047C165.064 270.047 156.663 270.27 156.663 270.047C156.663 269.823 148.754 215.409 147.726 199.01C146.698 182.611 147.302 163.173 145.939 160.906C144.576 158.638 149.614 142.485 149.614 142.485L161.5 145.657L167.074 171.63Z" fill="#133A50"/>
<path d="M163.421 76.7656C163.421 76.7656 159.701 85.2109 165.298 86.1381C174.235 87.6238 176.916 76.2294 176.916 76.2294L186.735 81.2787C186.735 81.2787 186.556 142.407 190.421 161.073C192.656 171.909 155.367 166.737 149.893 157.119C145.168 148.796 158.83 79.6365 158.83 79.6365L163.421 76.7656Z" fill="white"/>
<path d="M179.228 77.2892C178.96 77.6578 165.823 116.209 170.291 152.493C171.33 160.949 186.758 153.945 190.399 153.945C190.399 153.945 192.142 126.866 192.578 116.801C193.013 106.736 188.199 103.396 188.634 98.4918C189.07 93.5877 194.421 84.785 194.421 84.785L179.228 77.2892Z" fill="#848ECA"/>
<path d="M157.233 156.325C158.741 131.112 159.355 78.3175 159.355 78.3175L150.418 77.6472C150.418 77.6472 145.95 121.929 145.95 126.967C145.95 128.967 146.553 153.286 145.201 157.833C148.162 158.28 157.032 159.363 157.233 156.325Z" fill="#848ECA"/>
<path d="M254.13 63.5496C247.148 65.9513 239.965 68.4537 234.424 73.3354C228.883 78.2172 225.297 86.0927 227.632 93.1082C229.967 100.124 239.708 104.19 245.338 99.4086C247.36 97.6883 248.611 94.7391 247.572 92.3262C245.416 87.5338 237.943 89.7792 234.435 93.6779C230.268 98.3139 227.632 104.637 228.66 110.781C229.688 116.925 235.05 122.432 241.272 122.421C247.494 122.41 256.364 113.026 251.035 109.809C244.266 105.731 235.575 115.461 232.246 122.622C228.917 129.783 230.995 139.501 237.831 143.523C244.668 147.545 260.587 142.462 256.409 135.703C251.94 128.621 238.937 138.842 237.206 147.008C235.474 155.174 241.864 164.134 250.153 165.139C258.442 166.144 272.819 156.705 267.077 150.617C258.777 141.847 244.947 164.178 248.946 175.562C252.946 186.945 269.423 191.492 278.684 183.739C280.415 182.287 282.035 180.209 281.655 177.975C281.119 174.243 276.014 173.193 272.45 174.389C263.123 177.505 258.922 190.542 264.631 198.518C270.339 206.494 284.079 206.639 289.989 198.786C290.622 198.066 291.095 197.219 291.376 196.303C291.657 195.386 291.74 194.42 291.62 193.469C291.028 190.855 287.945 189.391 285.319 189.883C282.696 190.558 280.446 192.245 279.064 194.575C273.757 202.45 275.545 214.28 282.962 220.268C290.38 226.256 302.311 225.396 308.846 218.492C310.544 216.693 311.951 214.292 311.504 211.856C310.979 209.041 307.974 207.153 305.114 207.22C302.228 207.462 299.548 208.816 297.641 210.996C289.296 219.654 292.86 236.421 304.009 240.946C315.157 245.47 337.265 233.014 329.445 223.888C324.217 217.788 313.906 230.981 315.224 238.901C316.542 246.822 325.658 252.229 333.422 250.184C341.186 248.14 351.43 237.002 345.42 231.663C341.175 227.887 334.249 235.874 332.997 241.404C332.403 244.19 332.736 247.095 333.946 249.675C335.156 252.254 337.177 254.367 339.7 255.692C345.196 258.384 351.921 256.809 357.205 253.67C362.489 250.53 366.868 246.163 371.951 242.767C377.086 239.366 382.851 237.03 388.904 235.896C394.958 234.762 401.178 234.853 407.195 236.165" stroke="#DBE6DC" stroke-width="2" stroke-miterlimit="10"/>
<path d="M606.655 99.9564C595.338 92.7287 494.475 177.763 498.173 244.934C498.173 244.934 517.8 218.425 534.914 205.5C552.028 192.576 553.704 179.047 553.67 165.653C553.637 152.259 579.23 157.834 582.112 142.92C587.217 116.624 616.831 106.447 606.655 99.9564Z" fill="#4FAE86"/>
<path d="M613.279 162.592C596.981 172.467 601.784 185.615 592.177 193.301C585.184 198.886 573.522 195.971 567.713 203.578C561.166 212.158 568.606 223.965 569.165 234.299C569.924 248.586 557.189 259.288 544.242 263.623C529.217 268.661 509.768 267.086 501.546 252.139C491.828 234.511 499.1 207.913 516.136 199.635C520.269 197.624 525.531 197.077 528.904 192.999C534.613 186.129 530.949 176.243 533.596 167.485C536.165 158.972 544.6 152.962 552.364 150.315C560.127 147.667 568.003 147.12 575.622 144.037C585.944 139.847 594.992 130.631 603.549 124.409C611.224 118.823 638.179 108.446 642.547 126.643C646.58 143.154 626.964 154.247 613.279 162.592Z" fill="#319188"/>
<path d="M614.955 136.028C614.955 136.028 548.353 169.541 495.212 277.498" stroke="#194459" stroke-miterlimit="10"/>
<path d="M655.181 186.476C655.181 186.476 569.533 185.515 498.374 267.142" stroke="white" stroke-miterlimit="10"/>
<path d="M612.709 224.659C604.555 227.932 602.332 241.695 593.551 243.437C587.15 244.711 580.336 239.047 574.08 241.985C567.042 245.336 568.282 255.223 565.4 261.959C561.434 271.275 549.615 273.923 539.707 272.46C528.145 270.75 515.734 263.411 514.963 251.235C514.047 236.869 527.251 222.357 541.125 222.648C544.477 222.715 548.163 224.089 551.693 222.648C557.636 220.146 558.306 212.672 562.808 207.98C567.31 203.289 574.661 202.395 580.682 203.188C586.703 203.981 592.088 206.271 598.098 206.796C606.275 207.5 615.167 204.562 622.83 203.445C629.667 202.417 657.584 202.965 648.021 217.576C641.318 227.675 623.59 220.313 612.709 224.659Z" fill="#4FAE86"/>
<path d="M630.326 211.175C630.326 211.175 570.829 216.213 501.658 267.499" stroke="#194459" stroke-miterlimit="10"/>
<path d="M436.509 275.141C436.509 275.141 450.048 251.436 452.26 248.989C466.179 233.585 484.656 233.406 503.457 237.305C508.897 238.422 523.308 245.996 528.536 244.957C532.602 244.141 537.472 228.658 550.52 229.474C563.568 230.289 564.339 245.761 564.339 245.761C564.339 245.761 572.516 227.787 585.564 229.451C598.612 231.116 598.589 243.248 588.826 252.24C588.826 252.24 609.593 246.007 629.745 255.659C649.898 265.31 640.28 278.001 640.28 278.001L436.509 275.141Z" fill="#319188"/>
<path d="M74.2203 99.9564C85.5366 92.7287 186.4 177.763 182.702 244.934C182.702 244.934 163.075 218.425 145.961 205.5C128.847 192.576 127.171 179.047 127.205 165.653C127.238 152.259 101.645 157.834 98.7631 142.92C93.6579 116.624 64.0435 106.447 74.2203 99.9564Z" fill="#4FAE86"/>
<path d="M67.5958 162.592C83.8944 172.467 79.0908 185.615 88.6979 193.301C95.691 198.886 107.354 195.971 113.163 203.578C119.709 212.158 112.269 223.965 111.71 234.299C110.951 248.586 123.686 259.288 136.633 263.623C151.658 268.661 171.107 267.086 179.329 252.139C189.047 234.511 181.775 207.913 164.739 199.635C160.606 197.624 155.344 197.077 151.971 192.999C146.262 186.129 149.926 176.243 147.279 167.485C144.71 158.972 136.275 152.962 128.512 150.315C120.748 147.667 112.872 147.12 105.253 144.037C94.9314 139.847 85.8828 130.631 77.3258 124.409C69.6513 118.823 42.6956 108.446 38.3277 126.643C34.3508 143.154 53.9113 154.247 67.5958 162.592Z" fill="#319188"/>
<path d="M65.9204 136.028C65.9204 136.028 132.522 169.541 185.663 277.498" stroke="#194459" stroke-miterlimit="10"/>
<path d="M25.6934 186.476C25.6934 186.476 111.342 185.515 182.501 267.142" stroke="white" stroke-miterlimit="10"/>
<path d="M68.1656 224.659C76.3205 227.932 78.5435 241.695 87.3239 243.437C93.7249 244.711 100.539 239.047 106.795 241.985C113.833 245.336 112.593 255.223 115.475 261.959C119.441 271.275 131.26 273.923 141.168 272.46C152.73 270.75 165.141 263.411 165.912 251.235C166.828 236.869 153.624 222.357 139.75 222.648C136.398 222.715 132.712 224.089 129.182 222.648C123.239 220.146 122.569 212.672 118.011 207.98C113.453 203.289 106.158 202.395 100.137 203.188C94.1159 203.981 88.7315 206.271 82.7215 206.796C74.5443 207.5 65.6521 204.562 57.9888 203.445C51.1521 202.417 23.2357 202.965 32.7981 217.576C39.5566 227.675 57.285 220.313 68.1656 224.659Z" fill="#4FAE86"/>
<path d="M50.5488 211.175C50.5488 211.175 110.046 216.246 179.217 267.499" stroke="#194459" stroke-miterlimit="10"/>
<path d="M244.367 275.141C244.367 275.141 230.827 251.436 228.615 248.989C214.696 233.585 196.219 233.406 177.419 237.305C171.978 238.422 157.568 245.996 152.34 244.957C148.273 244.141 143.403 228.658 130.355 229.474C117.307 230.289 116.536 245.761 116.536 245.761C116.536 245.761 108.359 227.787 95.3114 229.451C82.2636 231.116 82.3865 243.248 92.1053 252.24C92.1053 252.24 71.3383 246.007 51.1857 255.659C31.0332 265.31 40.6514 278.001 40.6514 278.001L244.367 275.141Z" fill="#319188"/>
<path d="M390.283 277.207H369.214C368.09 277.211 367.006 276.791 366.178 276.031C365.35 275.271 364.838 274.227 364.746 273.107L363.383 256.429H396.125L394.74 273.062C394.658 274.189 394.153 275.242 393.326 276.011C392.499 276.78 391.412 277.207 390.283 277.207Z" fill="#21295B"/>
<path d="M514.706 277.207H493.615C492.491 277.211 491.407 276.791 490.579 276.031C489.751 275.271 489.239 274.227 489.146 273.107L487.772 256.429H520.515L519.174 273.107C519.082 274.227 518.57 275.271 517.742 276.031C516.914 276.791 515.83 277.211 514.706 277.207Z" fill="#21295B"/>
<path d="M518.325 234.645H365.572L376.375 155.889C376.78 152.919 378.249 150.197 380.508 148.227C382.768 146.257 385.665 145.173 388.663 145.176H495.235C498.232 145.173 501.129 146.257 503.389 148.227C505.649 150.197 507.117 152.919 507.523 155.889L518.325 234.645Z" fill="#5A52BE"/>
<path d="M497.715 219.374H386.239L394.059 140.25C394.344 137.411 395.673 134.78 397.789 132.866C399.905 130.953 402.656 129.894 405.509 129.894H478.299C481.16 129.882 483.922 130.937 486.047 132.851C488.172 134.766 489.508 137.403 489.794 140.25L497.715 219.374Z" fill="#7C72EB"/>
<g style="mix-blend-mode:multiply">
<path d="M368.019 216.772L365.572 234.646H518.325L515.879 216.772H368.019Z" fill="#CFCFCF"/>
</g>
<path d="M534.858 265.198H349.028L352.468 224.826H531.429L534.858 265.198Z" fill="#7C72EB"/>
<g style="mix-blend-mode:multiply">
<path d="M460.493 207.558C476.226 197.314 480.675 176.255 470.431 160.522C460.186 144.79 439.128 140.34 423.395 150.585C407.662 160.829 403.213 181.888 413.457 197.62C423.702 213.353 444.76 217.802 460.493 207.558Z" fill="#CFCFCF"/>
</g>
<path d="M442.633 208.514C458.867 208.134 471.719 194.666 471.339 178.432C470.959 162.198 457.491 149.346 441.257 149.726C425.023 150.105 412.171 163.574 412.551 179.807C412.931 196.041 426.399 208.894 442.633 208.514Z" fill="white"/>
<path d="M450.159 203.299C449.147 203.294 448.177 202.893 447.456 202.182C447.279 202.002 447.122 201.803 446.987 201.59C446.85 201.384 446.731 201.167 446.629 200.942C446.542 200.709 446.471 200.47 446.417 200.227C446.369 199.98 446.343 199.73 446.339 199.478C446.343 198.469 446.745 197.502 447.456 196.786C447.904 196.345 448.452 196.019 449.053 195.836C449.654 195.654 450.29 195.619 450.908 195.736C451.149 195.789 451.384 195.863 451.612 195.959C451.847 196.05 452.072 196.166 452.282 196.306C452.488 196.45 452.682 196.611 452.863 196.786C453.574 197.502 453.976 198.469 453.98 199.478C453.976 199.73 453.95 199.98 453.902 200.227C453.848 200.47 453.777 200.709 453.689 200.942C453.587 201.165 453.472 201.381 453.343 201.59C453.201 201.801 453.04 201.999 452.863 202.182C452.682 202.354 452.488 202.51 452.282 202.651C452.074 202.795 451.849 202.911 451.612 202.997C451.386 203.099 451.15 203.173 450.908 203.221C450.662 203.274 450.411 203.3 450.159 203.299Z" fill="#B3B3B3"/>
<path d="M438.329 204.65C437.328 204.504 436.425 203.967 435.818 203.157C435.211 202.347 434.949 201.33 435.09 200.327C435.236 199.326 435.773 198.423 436.583 197.816C437.393 197.209 438.411 196.947 439.413 197.088C440.414 197.234 441.317 197.771 441.924 198.581C442.531 199.391 442.793 200.408 442.653 201.411C442.521 202.321 442.065 203.153 441.37 203.754C440.674 204.355 439.785 204.685 438.866 204.684L438.329 204.65ZM426.041 199.434C425.247 198.806 424.733 197.891 424.612 196.886C424.49 195.882 424.771 194.87 425.393 194.071C425.701 193.677 426.084 193.346 426.519 193.099C426.955 192.852 427.435 192.694 427.932 192.633C428.429 192.571 428.933 192.609 429.416 192.742C429.898 192.876 430.35 193.104 430.744 193.412C431.539 194.036 432.055 194.949 432.179 195.952C432.302 196.955 432.023 197.966 431.403 198.763C431.047 199.223 430.589 199.595 430.066 199.851C429.544 200.106 428.969 200.239 428.387 200.238C427.547 200.241 426.73 199.966 426.064 199.456L426.041 199.434ZM418.032 188.765C417.653 187.829 417.661 186.781 418.055 185.85C418.449 184.92 419.196 184.185 420.132 183.805C421.071 183.426 422.122 183.436 423.054 183.832C423.986 184.228 424.723 184.978 425.103 185.917C425.479 186.856 425.467 187.906 425.072 188.837C424.676 189.769 423.929 190.506 422.992 190.888C422.535 191.064 422.051 191.155 421.562 191.156C420.805 191.153 420.067 190.924 419.441 190.498C418.816 190.072 418.333 189.469 418.054 188.765H418.032ZM419.64 179.828C418.637 179.684 417.731 179.149 417.122 178.338C416.512 177.528 416.249 176.509 416.389 175.505C416.539 174.505 417.076 173.604 417.886 172.998C418.695 172.391 419.711 172.128 420.713 172.266C421.713 172.412 422.615 172.947 423.223 173.754C423.832 174.561 424.098 175.576 423.963 176.578C423.834 177.49 423.38 178.324 422.684 178.928C421.988 179.531 421.098 179.863 420.176 179.862C420.005 179.868 419.834 179.864 419.663 179.851L419.64 179.828ZM422.277 168.602C421.88 168.293 421.549 167.91 421.301 167.474C421.053 167.038 420.893 166.557 420.831 166.059C420.768 165.561 420.805 165.056 420.938 164.572C421.071 164.088 421.298 163.635 421.606 163.239C421.914 162.844 422.297 162.514 422.732 162.267C423.168 162.02 423.648 161.862 424.145 161.8C424.642 161.739 425.146 161.777 425.629 161.91C426.111 162.044 426.563 162.272 426.957 162.58C427.354 162.886 427.687 163.268 427.936 163.703C428.184 164.139 428.345 164.619 428.407 165.116C428.469 165.614 428.432 166.118 428.299 166.602C428.165 167.085 427.937 167.537 427.628 167.931C427.272 168.392 426.815 168.765 426.292 169.021C425.769 169.277 425.194 169.408 424.611 169.406C423.776 169.405 422.963 169.13 422.299 168.624L422.277 168.602ZM453.086 164.803C452.691 164.496 452.359 164.114 452.111 163.679C451.863 163.244 451.704 162.764 451.641 162.267C451.579 161.77 451.615 161.265 451.748 160.782C451.881 160.3 452.108 159.848 452.416 159.452C452.723 159.055 453.106 158.723 453.542 158.474C453.977 158.225 454.458 158.064 454.956 158.001C455.454 157.937 455.959 157.973 456.444 158.105C456.928 158.237 457.381 158.463 457.778 158.771C458.574 159.396 459.09 160.311 459.214 161.316C459.337 162.321 459.058 163.333 458.437 164.133C458.081 164.591 457.625 164.962 457.105 165.217C456.584 165.472 456.012 165.606 455.432 165.608C454.593 165.609 453.776 165.335 453.109 164.826L453.086 164.803ZM430.152 160.179C429.963 159.714 429.868 159.218 429.872 158.716C429.876 158.215 429.979 157.72 430.175 157.259C430.372 156.798 430.657 156.38 431.016 156.03C431.374 155.68 431.798 155.404 432.264 155.219C433.202 154.842 434.25 154.852 435.181 155.245C436.113 155.638 436.851 156.384 437.235 157.319C437.422 157.785 437.515 158.283 437.51 158.785C437.505 159.286 437.401 159.782 437.204 160.244C437.006 160.706 436.72 161.124 436.361 161.475C436.003 161.826 435.578 162.103 435.112 162.29C434.662 162.475 434.18 162.569 433.693 162.569C432.938 162.568 432.2 162.342 431.574 161.92C430.947 161.498 430.46 160.9 430.174 160.201L430.152 160.179ZM444.429 161.139C443.426 160.995 442.521 160.459 441.914 159.648C441.306 158.838 441.046 157.819 441.189 156.816C441.333 155.815 441.868 154.913 442.676 154.305C443.484 153.698 444.5 153.436 445.501 153.576C446.504 153.718 447.409 154.251 448.019 155.06C448.628 155.868 448.892 156.886 448.752 157.888C448.621 158.798 448.167 159.629 447.474 160.232C446.781 160.835 445.895 161.169 444.976 161.173C444.801 161.179 444.626 161.176 444.451 161.162L444.429 161.139Z" fill="#B3B3B3"/>
<path d="M462.314 174.735C462.062 174.732 461.812 174.706 461.565 174.657C461.321 174.609 461.082 174.537 460.85 174.445C460.625 174.34 460.405 174.225 460.191 174.098C459.986 173.953 459.791 173.793 459.61 173.618C458.898 172.903 458.496 171.935 458.493 170.926C458.492 170.671 458.518 170.416 458.571 170.166C458.619 169.924 458.694 169.688 458.795 169.462C458.883 169.226 459 169.001 459.141 168.792C459.282 168.586 459.439 168.392 459.61 168.211C459.789 168.037 459.983 167.88 460.191 167.742C460.401 167.606 460.621 167.486 460.85 167.385C461.082 167.296 461.321 167.228 461.565 167.184C462.179 167.06 462.814 167.089 463.414 167.268C464.014 167.447 464.561 167.771 465.006 168.211C465.184 168.389 465.345 168.584 465.486 168.792C465.624 169.004 465.74 169.228 465.833 169.462C465.934 169.688 466.009 169.924 466.056 170.166C466.106 170.416 466.128 170.671 466.123 170.926C466.123 171.936 465.722 172.905 465.007 173.62C464.293 174.334 463.324 174.735 462.314 174.735Z" fill="#B3B3B3"/>
<path d="M398.114 55.3502C396.997 52.4873 396.711 49.3672 397.29 46.3492C397.87 43.3312 399.29 40.5382 401.387 38.2921C401.387 38.2921 429.035 56.1657 459.934 51.1499C459.934 51.1499 463.285 60.4666 453.824 69.1018C453.824 69.0459 420.746 75.3241 398.114 55.3502Z" fill="#4737FF"/>
<path d="M445.445 15.6373C425.55 -1.11928 387.87 -3.49871 340.169 4.18697C299.149 10.7891 257.381 26.2833 243.428 48.1674C237.083 58.132 241.395 85.8138 241.395 85.8138C279.176 88.1709 293.016 55.652 293.016 55.652C293.016 55.652 290.492 46.4359 298.959 42.3584C328.574 28.1042 374.509 23.2448 391.59 27.4451C394.132 28.0121 396.438 29.3493 398.193 31.2743C399.949 33.1994 401.068 35.6188 401.398 38.2028C401.398 38.2028 424.734 64.7005 459.867 50.6027C459.856 50.6362 454.472 23.2559 445.445 15.6373Z" fill="#7C72EB"/>
<path d="M300.724 70.5317C300.889 67.4614 300.183 64.4071 298.686 61.7209C297.19 59.0348 294.965 56.8264 292.268 55.3503C292.268 55.3503 271.635 81.0437 240.714 85.9366C240.714 85.9366 240.423 95.8453 252.153 101.062C252.186 101.085 285.521 96.6831 300.724 70.5317Z" fill="#4737FF"/>
<path d="M293.162 157.309H143.626C134.853 157.309 127.741 164.421 127.741 173.194V261.132C127.741 269.905 134.853 277.018 143.626 277.018H293.162C301.935 277.018 309.047 269.905 309.047 261.132V173.194C309.047 164.421 301.935 157.309 293.162 157.309Z" fill="#7C72EB"/>
<g style="mix-blend-mode:multiply">
<path d="M309.047 173.194C309.048 171.107 308.639 169.041 307.841 167.113C307.043 165.185 305.873 163.433 304.398 161.958C302.922 160.483 301.17 159.313 299.243 158.515C297.315 157.717 295.248 157.307 293.162 157.309H143.637C141.55 157.307 139.483 157.717 137.555 158.515C135.626 159.312 133.874 160.482 132.398 161.957C130.921 163.433 129.75 165.184 128.951 167.112C128.152 169.04 127.741 171.107 127.741 173.194L209.96 239.84C212.319 241.751 215.263 242.794 218.299 242.794C221.335 242.794 224.279 241.751 226.638 239.84L309.047 173.194Z" fill="#8079CD"/>
</g>
<path style="mix-blend-mode:overlay" opacity="0.7" d="M138.331 264.662V176.724C138.331 172.511 140.005 168.47 142.984 165.491C145.963 162.512 150.003 160.839 154.216 160.839H303.037C300.246 158.566 296.761 157.32 293.162 157.309H143.637C141.55 157.307 139.483 157.717 137.555 158.515C135.626 159.312 133.874 160.482 132.398 161.957C130.921 163.433 129.75 165.184 128.951 167.112C128.152 169.04 127.741 171.107 127.741 173.194V261.132C127.744 265.346 129.42 269.387 132.401 272.366C135.382 275.344 139.423 277.018 143.637 277.018H144.341C142.473 275.544 140.962 273.668 139.921 271.528C138.881 269.389 138.337 267.042 138.331 264.662Z" fill="url(#paint0_radial)"/>
<path d="M208.374 228.256L127.741 157.309H309.047L228.414 228.256C225.645 230.692 222.083 232.036 218.394 232.036C214.705 232.036 211.143 230.692 208.374 228.256Z" fill="url(#paint1_linear)"/>
<g style="mix-blend-mode:overlay" opacity="0.7">
<path d="M208.374 228.256L127.741 157.309H309.047L228.414 228.256C225.645 230.692 222.083 232.036 218.394 232.036C214.705 232.036 211.143 230.692 208.374 228.256Z" fill="#7C72EB"/>
</g>
<path d="M363.305 84.8865C363.305 84.8865 368.466 69.9955 368.834 68.3534C370.968 58.6793 371.549 37.7001 371.415 33.2428C371.281 28.7856 370.868 24.8645 370.778 24.306C370.689 23.7474 367.918 20.7312 367.907 20.7647C367.624 20.8205 367.336 20.8541 367.047 20.8653V21.4238L365.852 20.3849H364.858L364.757 20.8541L363.327 20.1727H361.964C361.964 20.1727 362.847 23.0101 363.349 24.7305C363.852 26.4508 363.349 26.596 363.349 26.596C362.861 26.7952 362.336 26.8903 361.808 26.8753C361.164 26.7868 360.513 26.7569 359.864 26.7859C359.864 26.7859 364.031 32.2151 364.221 32.7178C365.038 33.8281 365.61 35.0994 365.899 36.4475C366.188 37.7956 366.187 39.1898 365.896 40.5375C364.329 47.8675 362.349 55.1029 359.965 62.2093C360.099 61.9077 354.379 78.2844 354.379 78.2844L363.305 84.8865Z" fill="#C7A89C"/>
<path d="M360.545 104.592C362.143 92.0584 368.555 77.4244 368.555 77.4244C368.555 77.4244 358.758 75.4918 356.267 72.0064C356.267 72.0064 352.916 80.2506 350.949 84.3504C348.793 88.897 345.788 93.8346 349.575 96.538C353.362 99.2414 359.976 108.971 360.545 104.592Z" fill="#848ECA"/>
<path d="M322.966 269.096V277.151H338.46C338.46 277.151 337.868 274.235 330.529 272.883L329.412 269.096H322.966Z" fill="#133A50"/>
<path d="M346.526 269.096V277.151H362.009C362.009 277.151 361.428 274.235 354.077 272.883L352.96 269.096H346.526Z" fill="#133A50"/>
<path d="M325.569 149.187C325.569 149.187 323.402 171.708 323.335 192.866C323.268 214.024 321.994 270.974 321.994 270.974H330.54C330.54 270.974 339.354 216.147 342.56 202.54C345.766 188.934 354.089 149.444 354.089 149.444L325.569 149.187Z" fill="#133A50"/>
<path d="M338.717 74.4861C338.717 74.4861 338.159 78.7981 337.701 80.9876C337.492 82.3648 337.117 83.7115 336.583 84.998C335.846 86.4838 331.3 91.008 331.3 91.008C331.3 91.008 345.464 98.4815 349.631 98.4815C353.798 98.4815 352.335 90.1255 352.335 90.1255C352.335 90.1255 347.799 86.5396 347.118 84.7299C346.546 82.4209 346.18 80.0658 346.023 77.6922L338.717 74.4861Z" fill="#C7A89C"/>
<path d="M344.158 173.584C344.158 173.584 345.755 209.332 346.079 215.621C346.403 221.91 346.079 270.906 346.079 270.906C346.079 270.906 354.089 271.119 354.089 270.906C354.089 270.694 361.64 215.353 362.612 199.713C363.584 184.074 363.026 165.519 364.321 163.352C365.617 161.185 360.814 149.254 360.814 149.254L349.475 148.841L344.158 173.584Z" fill="#133A50"/>
<path d="M334.137 86.7965C334.137 86.7965 322.173 81.993 320.196 85.9363C318.699 88.9078 319.983 108.055 320.654 113.406C321.235 118.053 324.452 157.208 324.452 157.208C324.452 157.208 328.92 164.134 350.447 161.374C358.736 160.257 362.824 156.269 362.824 156.269C362.824 156.269 360.49 109.552 359.853 104.882C359.149 100.828 358.194 96.8209 356.993 92.8847L350.592 88.6621C350.592 88.6621 352.636 93.1305 346.85 94.4598C335.21 97.0292 334.137 86.7965 334.137 86.7965Z" fill="#848ECA"/>
<path d="M350.033 58.1989C351.396 58.7462 353.764 59.9639 354.033 61.0921C354.628 63.1963 355.08 65.3387 355.384 67.5043C355.507 69.4928 355.786 73.2462 355.786 75.5922C355.786 77.9381 354.368 82.6746 353.831 83.1773C352.011 83.981 350.015 84.3041 348.034 84.1157C346.704 83.7359 338.896 79.6472 338.404 74.7543C338.404 74.7543 337.019 75.4805 334.472 71.3472C333.813 70.2301 336.103 62.2874 336.405 60.8575C337.153 57.3945 345.699 60.1203 347.576 59.5729C348.53 59.4157 349.4 58.9296 350.033 58.1989Z" fill="#C7A89C"/>
<path d="M354.033 61.0915C354.033 61.0915 348.045 64.8449 345.71 65.0348C343.376 65.2247 339.946 68.442 340.013 69.4362C339.993 69.7732 339.893 70.1006 339.722 70.3917C339.551 70.6829 339.314 70.9296 339.03 71.1119C339.03 71.1119 337.578 68.7995 336.382 69.0341C334.025 69.5144 335.411 72.3854 336.695 73.0556C337.51 73.464 338.354 73.8112 339.22 74.0945C339.337 74.9157 339.371 75.7466 339.32 76.5745C339.121 77.5916 338.783 78.5764 338.315 79.5013C338.315 79.5013 335.556 73.6812 333.087 71.514C327.2 66.353 331.456 56.7683 337.254 54.9697C339.6 54.2436 346.023 53.7632 349.162 55.1596C350.381 55.6994 351.456 56.5171 352.302 57.5471C353.148 58.5772 353.74 59.7911 354.033 61.0915Z" fill="#133A50"/>
<path d="M341.555 69.2914C341.644 69.526 342.247 69.5707 342.359 69.6154C342.471 69.66 342.504 69.7606 343.577 71.4139C344.381 72.6315 345.71 73.0225 348.19 72.1847C350.1 71.548 349.832 69.9505 349.966 69.135C350.1 68.3195 350.268 68.2301 350.57 68.1743C350.871 68.1184 351.039 68.1743 351.43 68.8781C351.821 69.5818 352 71.3357 353.988 71.0453C355.351 70.833 355.708 70.4532 355.898 69.3696C356.054 68.5076 356.107 67.63 356.055 66.7556C355.999 66.0406 355.988 65.6385 355.619 65.5603C355.07 65.5554 354.523 65.6154 353.988 65.739C353.06 65.7823 352.15 66.0181 351.318 66.4316C350.67 66.9008 350.737 67.1912 350.402 67.2471C350.067 67.3029 350 67.0237 349.285 66.8003C347.568 66.7884 345.855 66.972 344.18 67.3476C342.996 67.5487 341.365 67.9956 341.398 68.4647C341.419 68.7453 341.471 69.0226 341.555 69.2914ZM351.787 67.5264C351.843 66.9455 351.888 67.0125 353.351 66.6774C354.815 66.3422 354.971 66.4093 355.273 66.6774C355.697 67.3855 355.826 68.2323 355.63 69.0345C355.653 69.4446 355.519 69.8482 355.256 70.1634C354.992 70.4787 354.619 70.6821 354.211 70.7325C352.927 70.9559 352.625 70.3191 352.256 69.4255C351.97 68.8285 351.793 68.1855 351.731 67.5264H351.787ZM343.253 68.4759C343.454 68.1631 345.431 67.895 346.928 67.7051C348.425 67.5152 348.916 67.4593 349.162 67.9844C349.345 68.6073 349.41 69.2591 349.352 69.9058C349.352 70.8665 349.129 71.7043 346.805 72.14C346.207 72.3433 345.553 72.3137 344.976 72.0569C344.398 71.8002 343.938 71.3353 343.688 70.7548C343.444 70.4346 343.273 70.0643 343.188 69.6703C343.103 69.2764 343.106 68.8685 343.197 68.4759H343.253ZM338.203 69.9617L341.476 69.2914L342.594 67.6716C342.594 67.6716 341.331 67.8503 339.242 68.3195C338.537 68.5102 337.872 68.8241 337.276 69.2467C337.629 69.4224 337.944 69.6653 338.203 69.9617Z" fill="#21295B"/>
<path d="M312.432 86.2605C312.432 86.2605 309.606 68.3198 309.572 66.6441C309.416 56.7354 314.432 43.4195 315.459 39.0852C316.487 34.7508 317.157 35.4211 317.37 34.8513C317.582 34.2816 324.765 33.1757 324.765 33.1757C325.542 32.8397 326.34 32.5561 327.155 32.3267C327.602 32.3267 329.501 31.7123 329.501 31.7123L328.384 33.7007C328.384 33.7007 323.916 37.052 323.603 37.5659C322.581 38.4966 321.768 39.6323 321.215 40.899C320.663 42.1656 320.384 43.5346 320.397 44.9165C320.207 53.7863 320.241 63.3822 320.241 63.3822C320.174 63.0582 324.486 81.7474 324.486 81.7474L312.432 86.2605Z" fill="#C7A89C"/>
<path d="M320.654 113.44C317.604 104.793 310.6 81.591 310.6 81.591C310.6 81.591 320.955 78.977 323.871 75.8156L328.82 90.4943C330.428 95.2532 332.841 100.548 328.764 102.782C324.686 105.017 322.117 117.551 320.654 113.44Z" fill="#848ECA"/>
<path d="M520.94 127.883C523.632 130.385 525.531 129.548 529.564 143.366C532.144 152.202 541.55 196.741 541.55 196.741L535.965 199.177C528.368 177.885 528.38 177.952 519.499 160.637C516.829 155.341 514.779 149.756 513.388 143.992L496.978 143.009C486.712 138.797 490.275 123.817 490.275 123.817C490.275 123.817 518.247 125.381 520.94 127.883Z" fill="url(#paint2_linear)"/>
<path d="M458.761 114.646L473.574 105.161L487.895 116.333L505.769 122.097H505.668C512.851 124.588 521.04 128.219 523.542 130.564C526.234 133.067 531.541 136.619 527.262 150.371C524.536 159.151 512.628 203.657 512.628 203.657L506.596 202.539C506.596 202.539 508.74 176.746 510.885 157.453C511.924 148.103 512.282 145.5 512.282 145.5C512.282 145.5 472.435 149.846 459.599 143.065C450.595 138.373 458.761 121.84 458.761 114.646Z" fill="url(#paint3_linear)"/>
<path d="M513.042 200.44C513.042 200.44 512.863 202.06 510.271 202.786C509.484 202.968 508.662 202.934 507.893 202.686C507.124 202.438 506.436 201.986 505.903 201.378L505.333 206.673L513.622 212.516H520.504L516.784 208.383L513.042 200.44Z" fill="#133A50"/>
<path d="M540.667 193.111C541.004 193.751 541.085 194.494 540.894 195.191C540.704 195.888 540.255 196.486 539.64 196.865C538.946 197.28 538.153 197.5 537.344 197.5C536.535 197.5 535.742 197.28 535.048 196.865L536.165 202.082L555.737 195.96L540.667 193.111Z" fill="#133A50"/>
<path d="M518.135 61.2709C516.97 60.0461 515.881 58.7516 514.874 57.3945L514.125 53.9873C514.125 53.9873 512.807 52.2223 511.79 51.1499C510.774 50.0775 509.858 45.5644 509.858 45.5644L511.187 44.7601C511.467 45.6166 511.814 46.4496 512.226 47.2512C512.594 47.5545 513.046 47.7377 513.522 47.7762C513.591 46.7198 513.591 45.6601 513.522 44.6037C513.3 42.7805 512.896 40.9842 512.315 39.2416L513.432 38.7054C513.824 39.506 514.175 40.3263 514.482 41.163C514.717 41.945 515.13 43.5424 515.13 43.5424C515.097 42.3258 514.981 41.1129 514.784 39.9118C514.538 38.8617 514.337 37.4989 514.337 37.4989L515.454 37.2084C515.777 38.1656 516.034 39.1435 516.225 40.1353C516.404 41.3306 516.817 43.3637 516.817 43.3637C516.88 42.132 516.88 40.8978 516.817 39.6661C516.706 38.7947 516.694 38.3702 516.694 38.3702H517.923C518.209 39.2698 518.356 40.2078 518.359 41.1518C518.335 41.8987 518.376 42.6462 518.482 43.386C518.704 42.3958 518.82 41.3847 518.828 40.3698C518.763 40.0304 518.763 39.6816 518.828 39.3421L519.778 39.5097C519.778 39.5097 520.314 43.2632 520.481 45.5309C520.649 47.7986 520.381 50.6807 520.358 52.2893C520.336 53.898 520.358 55.1491 520.358 55.1491L518.135 61.2709Z" fill="#C7A89C"/>
<path d="M493.034 65.6723C497.894 69.6247 502.998 73.2662 508.316 76.5752C508.316 76.5752 511.154 69.4481 512.505 64.3988C514.125 58.3664 514.605 55.5849 514.605 55.5849L520.37 55.1157C520.37 55.1157 518.538 70.5317 516.27 80.999C514.036 91.1646 511.299 89.3438 508.864 88.8187C506.428 88.2937 483.494 75.9943 483.494 75.9943L485.941 62.9019C485.941 62.9019 487.583 61.1816 493.034 65.6723Z" fill="#C7A89C"/>
<path d="M468.804 28.6396C470.033 27.9358 475.953 27.4554 479.662 29.7567C486.756 34.1245 483.348 46.0999 482.913 48.848C482.477 51.596 485.013 56.5783 484.968 59.8626C484.924 63.1469 484.142 64.331 481.684 67.5371C481.193 68.3076 480.88 69.1777 480.768 70.0841C478.944 67.1288 477.8 63.8055 477.417 60.3541C476.836 54.6904 475.64 56.0198 472.803 49.7975C469.965 43.5752 469.843 34.2139 469.843 34.2139L468.804 28.6396Z" fill="#471A16"/>
<path d="M474.702 32.6949L468.804 28.6398C467.257 28.4994 465.7 28.7791 464.298 29.4496C462.896 30.12 461.701 31.1563 460.839 32.4492C457.912 36.9176 456.896 43.4191 456.237 48.3009C455.578 53.1826 453.857 62.3429 454.003 65.9846C454.148 69.6264 458.538 70.1179 458.538 70.1179L473.373 63.7057C472.344 58.3933 472.299 52.9371 473.239 47.6083C474.195 42.6942 474.685 37.701 474.702 32.6949Z" fill="#471A16"/>
<path d="M479.64 33.935C479.953 35.7782 481.383 41.1962 481.517 44.6704C481.651 48.1446 481.249 53.8753 478.947 55.4616C476.646 57.0479 472.323 55.7744 469.162 54.4674C466 53.1604 465.229 50.9373 464.615 48.8819C464.001 46.8264 464.213 41.4308 464.939 37.5544C465.133 36.0248 465.833 34.6042 466.929 33.5191C468.024 32.4339 469.451 31.7466 470.982 31.5667C473.831 31.0417 479.64 33.935 479.64 33.935Z" fill="#C7A89C"/>
<path d="M466.67 46.871C466.67 46.871 467.475 55.5062 465.665 59.5724C464.403 62.3764 459.331 63.5717 459.331 63.5717C459.496 69.0183 461.213 74.3046 464.28 78.809C469.374 86.3159 485.315 89.0863 485.315 89.0863C487.362 84.8433 488.975 80.4046 490.13 75.8375C490.569 73.6822 490.546 71.458 490.06 69.3125C489.575 67.167 488.639 65.1492 487.315 63.3929C487.315 63.3929 483.014 61.9854 480.947 61.1587C475.92 59.2708 476.479 51.2947 476.479 51.2947L466.67 46.871Z" fill="#C7A89C"/>
<path d="M476.4 66.89C476.4 66.89 466.089 64.276 462.995 62.2652L452.785 68.3311C452.785 68.3311 446.775 74.0618 457.019 89.1204C457.019 89.1204 460.906 102.827 454.594 126.99C454.594 126.99 456.304 133.212 465.877 129.895C474.11 127.046 474.3 124.812 481.517 122.98C492.174 120.288 494.978 118.623 494.978 118.623C489.392 110.211 490.375 97.0742 490.375 97.0742C490.375 97.0742 496.721 90.9971 493.995 84.786C490.074 75.8492 488.756 63.1477 488.756 63.1477L483.282 61.7625C481.948 63.4224 480.488 64.9761 478.914 66.4097C478.587 66.7257 478.175 66.9395 477.729 67.0249C477.282 67.1102 476.821 67.0633 476.4 66.89Z" fill="#848ECA"/>
<path d="M480.891 61.2032C480.891 61.2032 479.629 65.8727 476.423 66.8893C476.423 66.8893 477.685 73.2791 480.712 72.1732C484.968 70.6093 483.304 61.773 483.304 61.773L480.891 61.2032Z" fill="white"/>
<path d="M461.766 61.4719C461.766 61.4719 463.788 71.2466 469.184 72.0398C474.58 72.8329 476.4 66.8899 476.4 66.8899C476.4 66.8899 464.961 63.5386 463.844 60.0309L461.766 61.4719Z" fill="white"/>
<path d="M471.273 31.4887C470.279 31.5446 469.541 36.2587 469.441 38.8839C469.34 41.5091 465.419 43.5869 467.151 49.3624C468.882 55.1378 468.648 60.7233 470.971 67.0461C473.295 73.3689 470.402 75.7037 469.15 77.882C466.746 75.2962 464.508 72.5613 462.448 69.6937C461.757 68.4727 460.694 67.5049 459.413 66.932C458.133 66.3591 456.702 66.2112 455.332 66.5099C455.332 66.5099 462.928 51.7418 462.671 47.7537C462.414 43.7657 461.71 37.6998 464.905 34.058C468.1 30.4163 471.273 31.4887 471.273 31.4887Z" fill="#471A16"/>
<path d="M467.273 43.2747C467.273 43.2747 465.162 40.9623 463.766 41.3198C462.369 41.6773 462.28 43.7662 463.341 45.4754C464.402 47.1846 468.346 48.1565 468.346 48.1565L467.273 43.2747Z" fill="#C7A89C"/>
<path d="M472.088 38.7726C474.097 38.8371 476.108 38.6911 478.087 38.3369C481.918 37.9124 483.527 38.8955 483.527 38.8955L482.086 32.528C482.086 32.528 477.618 30.0368 474.445 30.0592C470.401 30.0592 466.871 31.6343 468.86 32.9413C470.848 34.2483 472.088 38.7726 472.088 38.7726Z" fill="#471A16"/>
<path d="M461.453 75.4585C460.772 83.4458 458.415 106.235 458.415 106.235C465.698 112.591 475.987 123.181 475.987 123.181C475.987 123.181 473.06 128.957 471.809 127.985C461.755 120.165 450.327 115.507 449.467 110.111C448.115 101.174 447.657 78.6087 450.953 71.2693C453.544 65.5833 462.202 66.9908 461.453 75.4585Z" fill="#C7A89C"/>
<path d="M480.41 123.906C483.449 125.023 485.37 126.14 485.192 127.258C485.058 128.039 482.466 126.61 480.902 126.654C481.737 128.216 483.032 129.483 484.611 130.285C486.622 131.279 487.75 132.653 486.666 133.815C485.583 134.977 483.605 136.608 482.31 136.049C481.014 135.491 476.411 132.24 474.68 131.346C472.948 130.452 472.256 128.285 471.328 127.682C470.401 127.079 472.959 122.51 472.959 122.51C473.44 122.644 475.942 123.18 475.942 123.18C476.766 123.313 477.599 123.384 478.433 123.392C479.117 123.45 479.785 123.624 480.41 123.906Z" fill="#C7A89C"/>
<path d="M0 276.604H680.875" stroke="#194459" stroke-miterlimit="10"/>
<defs>
<radialGradient id="paint0_radial" cx="0" cy="0" r="1" gradientUnits="userSpaceOnUse" gradientTransform="translate(146.888 200.239) scale(75.0471)">
<stop stop-color="white"/>
<stop offset="1" stop-color="white" stop-opacity="0"/>
</radialGradient>
<linearGradient id="paint1_linear" x1="218.501" y1="142.291" x2="218.394" y2="232.032" gradientUnits="userSpaceOnUse">
<stop stop-color="#857AFF"/>
<stop offset="1" stop-color="#10049D"/>
</linearGradient>
<linearGradient id="paint2_linear" x1="541.55" y1="161.497" x2="489.616" y2="161.497" gradientUnits="userSpaceOnUse">
<stop stop-color="#343A44"/>
<stop offset="0.3" stop-color="#232D3E"/>
<stop offset="0.64" stop-color="#182439"/>
<stop offset="1" stop-color="#142138"/>
</linearGradient>
<linearGradient id="paint3_linear" x1="36306" y1="26667.3" x2="41141.8" y2="26667.3" gradientUnits="userSpaceOnUse">
<stop stop-color="#343A44"/>
<stop offset="0.3" stop-color="#232D3E"/>
<stop offset="0.64" stop-color="#182439"/>
<stop offset="1" stop-color="#142138"/>
</linearGradient>
</defs>
</svg>
