<svg xmlns="http://www.w3.org/2000/svg" width="110" height="110" viewBox="0 0 110 110">
  <g id="Group_115" data-name="Group 115" transform="translate(-1126 -7101)">
    <circle id="Ellipse_21" data-name="Ellipse 21" cx="55" cy="55" r="55" transform="translate(1126 7101)" fill="#ff815c"/>
    <g id="Page-1" transform="matrix(0.978, 0.208, -0.208, 0.978, 1153.167, 7113.387)">
      <g id="_001---Degree" data-name="001---Degree" transform="translate(0 0)">
        <path id="Shape" d="M63.865,43.256c0,6.765-1.1,12.256-2.451,12.256a189.141,189.141,0,0,0-24.855-2.3L33.52,51.761A7.334,7.334,0,0,0,32,42.68c-.037-4.069,1.863-7.55,1.091-9.278A197.044,197.044,0,0,0,61.414,31C62.762,31,63.865,36.491,63.865,43.256Z" transform="translate(7.219 6.993)" fill="#f8e8ab"/>
        <path id="Shape-2" data-name="Shape" d="M18.381,20.909.819,14.634a1.226,1.226,0,0,1,0-2.3L35.111.074a1.288,1.288,0,0,1,.858,0L70.261,12.329a1.226,1.226,0,0,1,0,2.3L62.417,17.44l-3.395,1.213L52.7,20.909Z" transform="translate(0.003 0)" fill="#393f4b"/>
        <g id="Group_105" data-name="Group 105" transform="translate(2.451 37.993)">
          <path id="Shape-3" data-name="Shape" d="M2.172,50.97,2,51.007A.391.391,0,0,0,2.172,50.97Z" transform="translate(-2 -26.495)" fill="#f8e8ab"/>
          <path id="Shape-4" data-name="Shape" d="M2.147,31.025A1.385,1.385,0,0,1,2,31,.613.613,0,0,1,2.147,31.025Z" transform="translate(-2 -31)" fill="#f8e8ab"/>
          <path id="Shape-5" data-name="Shape" d="M2.13,31.02a194.884,194.884,0,0,0,26.657,2.341c.809,1.789,3.824,5.552,3.824,9.891,0,.294,0,.576-.012.858a7.354,7.354,0,0,0-.27,7.648L29.3,53.13A199.13,199.13,0,0,0,2.142,55.471Z" transform="translate(-1.971 -30.995)" fill="#f8e8ab"/>
        </g>
        <path id="Shape-6" data-name="Shape" d="M25.24,43.678c.012-.282.012-.564.012-.858A28.141,28.141,0,0,0,23.88,32.93c2.01.061,4.106.086,6.275.086,1.63,0,3.223-.012,4.768-.049a26.878,26.878,0,0,1,1.348,9.278Z" transform="translate(5.387 7.429)" fill="#ba3a23"/>
        <path id="Shape-7" data-name="Shape" d="M31.875,51.69,28.615,59.5a1.226,1.226,0,0,1-2.267.037l-.895-2.059-2.059.882a1.217,1.217,0,0,1-1.618-1.569l3.113-7.476.576-1.373Z" transform="translate(4.893 10.815)" fill="#ba3a23"/>
        <path id="Shape-8" data-name="Shape" d="M36.41,47.94l.6,1.446,3.088,7.4a1.217,1.217,0,0,1-1.618,1.569l-2.059-.882-.895,2.059A1.226,1.226,0,0,1,33.26,59.5L30,51.69Z" transform="translate(6.768 10.815)" fill="#ba3a23"/>
        <path id="Shape-9" data-name="Shape" d="M15,27.158V13.677C15,11.642,22.684,10,32.158,10s17.158,1.642,17.158,3.677V27.158Z" transform="translate(3.384 2.256)" fill="#464f5e"/>
        <path id="Shape-10" data-name="Shape" d="M50.226,16.931A1.226,1.226,0,0,1,49,15.705V7.666a1.226,1.226,0,0,1,2.451,0v8.04A1.226,1.226,0,0,1,50.226,16.931Z" transform="translate(11.054 1.453)" fill="#edc100"/>
        <path id="Shape-11" data-name="Shape" d="M48,16.451v3.677a1.226,1.226,0,0,0,1.226,1.226h2.451A1.226,1.226,0,0,0,52.9,20.128V16.451a2.451,2.451,0,0,0-4.9,0Z" transform="translate(10.828 3.158)" fill="#f1d24b"/>
        <ellipse id="Oval" cx="17.5" cy="4" rx="17.5" ry="4" transform="translate(18 25)" fill="#393f4b"/>
        <path id="Shape-12" data-name="Shape" d="M4.9,43.256c0,6.471-1,11.778-2.28,12.219a.391.391,0,0,1-.172.037C1.1,55.512,0,50.021,0,43.256S1.1,31,2.451,31a.045.045,0,0,1,.037.012c.025,0,.061.012.11.012h.012C3.885,31.454,4.9,36.76,4.9,43.256Z" transform="translate(0 6.993)" fill="#e2be50"/>
        <path id="Shape-13" data-name="Shape" d="M38.707,46.354A7.354,7.354,0,1,1,31.354,39a7.2,7.2,0,0,1,4.89,1.875A7.306,7.306,0,0,1,38.707,46.354Z" transform="translate(5.414 8.798)" fill="#e04c34"/>
      </g>
    </g>
  </g>
</svg>
