<svg xmlns="http://www.w3.org/2000/svg" width="184.079" height="158.458" viewBox="0 0 184.079 158.458">
  <g id="Group_110" data-name="Group 110" transform="translate(-864.971 -5866.828)">
    <path id="Path_81" data-name="Path 81" d="M67.184,56.552c-49.361,0-61.659,21.994-68.77,46.254s37.448,13.083,39.913,39.963,36.025,41.681,60.456,34.807,54.441-50.856,54.441-50.856,28.5-36.211,28.5-63.447c0-31.624-29.168-50.973-54.159-38.805C108.89,33.561,88.8,56.552,67.184,56.552Z" transform="translate(867.326 5846.035)" fill="#e0f6ff"/>
    <g id="XMLID_1258_" transform="translate(893.575 5882.051)">
      <g id="XMLID_1850_" transform="translate(0)">
        <path id="XMLID_1911_" d="M124.975,52.856a2.457,2.457,0,0,0-2.22-.671L101.6,56.443a2.454,2.454,0,0,0-1.251,4.142l2.862,2.862L91.982,74.678l-8.695-8.695a2.454,2.454,0,0,0-3.471,0L69.147,76.653l4-14.38A11.523,11.523,0,0,0,66.1,48.4l3.2-9.139c.883.078,1.763.117,2.634.117a30.516,30.516,0,0,0,19.457-7.033l.585-.486A6.837,6.837,0,0,0,93.1,22.4a6.808,6.808,0,0,0-9.742-1.079l-.664.552a16.9,16.9,0,0,1-3.182,2.086,10.178,10.178,0,0,1-11.651-2.049,11.216,11.216,0,1,0-12.369-4.123,12.786,12.786,0,0,0-6.6,3.721,2.452,2.452,0,0,0-.289.3A33.3,33.3,0,0,1,31.918,32.83a6.788,6.788,0,0,0-4.041,3.2L22.846,31a5.652,5.652,0,0,0-7.983,0L8.28,37.582h0L1.7,44.165a5.645,5.645,0,0,0,0,7.984L19.835,70.287a5.646,5.646,0,0,0,7.984,0l6.816-6.816L31.4,71.946A2.454,2.454,0,1,0,35.99,73.7l8.05-21.108H62.063a6.6,6.6,0,0,1,6.358,8.369L62.843,81a2.1,2.1,0,0,1-2.016,1.532,2.093,2.093,0,0,1-2.067-2.421L61.728,61.45A2.454,2.454,0,0,0,59.3,58.61H53.485a2.454,2.454,0,0,0-2.19,1.346c-.143.283-14.384,28.44-19.182,37.954a2.52,2.52,0,0,1-2.6,1.35l-.116-.016A2.4,2.4,0,0,1,27.48,96.01l1.512-3.966A2.454,2.454,0,1,0,24.406,90.3l-1.512,3.965a7.31,7.31,0,0,0,5.848,9.848l.116.015a7.444,7.444,0,0,0,7.638-4c4.192-8.31,15.591-30.853,18.5-36.6h1.434L53.913,79.334A7,7,0,0,0,58.7,87.1L31.357,114.443a2.454,2.454,0,0,0,0,3.471l7.04,7.04a2.454,2.454,0,0,0,3.471,0L55.4,111.42a2.455,2.455,0,0,0-3.471-3.471l-11.8,11.8-3.569-3.569L81.552,71.189l8.695,8.695a2.454,2.454,0,0,0,3.471,0l14.7-14.7a2.455,2.455,0,0,0,0-3.471l-1.359-1.359,13.045-2.625L117.48,70.771l-2.02-2.02a2.455,2.455,0,0,0-3.471,0L91.982,88.757l-8.695-8.695a2.455,2.455,0,0,0-3.471,0l-14,14a2.455,2.455,0,0,0,3.471,3.471L81.552,85.27l8.695,8.695a2.455,2.455,0,0,0,3.471,0l20.007-20.007,3.523,3.523a2.455,2.455,0,0,0,4.142-1.251l4.257-21.153A2.455,2.455,0,0,0,124.975,52.856ZM64.547,4.909a6.3,6.3,0,1,1-6.3,6.3A6.3,6.3,0,0,1,64.547,4.909ZM40.26,48.412l-2.987-2.987q2.128-.694,4.176-1.585ZM31.977,39.9a1.9,1.9,0,0,1,1.3-2.352,38.284,38.284,0,0,0,11.188-5.3L43.08,37.574A42.329,42.329,0,0,1,34.328,41.2c-.057.016-.116.03-.175.042a1.884,1.884,0,0,1-1.286-.221l-.719-.719A1.867,1.867,0,0,1,31.977,39.9ZM18.334,34.469a.737.737,0,0,1,1.041,0l8.947,8.947a6.746,6.746,0,0,0,1.467,1.467l7.725,7.725a.737.737,0,0,1,0,1.041L32.666,58.5l-5.391-5.391L28.3,52.079a2.455,2.455,0,0,0,0-3.471l-5.525-5.525a2.455,2.455,0,0,0-3.471,0L18.279,44.11l-4.793-4.793Zm3.36,17.276a.921.921,0,0,1-1.3,0h0L19.64,51a.921.921,0,0,1,0-1.3l1.4-1.4L23.1,50.344Zm2.654,15.071a.736.736,0,0,1-1.041,0L5.167,48.677a.736.736,0,0,1,0-1.041l4.848-4.848,5.023,5.022a5.837,5.837,0,0,0,1.131,6.655l.751.75h0a5.837,5.837,0,0,0,6.655,1.131L29.2,61.969ZM59.406,47.679H45.523L50.565,28.3a7.868,7.868,0,0,1,7.613-5.886,7.78,7.78,0,0,1,5.762,2.512,15.132,15.132,0,0,0,17.778,3.421,21.792,21.792,0,0,0,4.108-2.693l.664-.552a1.9,1.9,0,0,1,2.72.3,1.971,1.971,0,0,1-.372,2.686l-.585.486a25.46,25.46,0,0,1-20.242,5.593,2.452,2.452,0,0,0-2.694,1.614l-4.166,11.9Z" transform="translate(-0.043)" fill="#0a4a65"/>
        <path id="XMLID_1920_" d="M239.45,408.8a2.456,2.456,0,1,0,1.735.719A2.472,2.472,0,0,0,239.45,408.8Z" transform="translate(-178.839 -308.466)" fill="#0a4a65"/>
        <path id="XMLID_1921_" d="M115.34,329.049a2.451,2.451,0,1,0-1.738-.719A2.472,2.472,0,0,0,115.34,329.049Z" transform="translate(-85.19 -244.585)" fill="#0a4a65"/>
      </g>
    </g>
  </g>
</svg>
