<svg xmlns="http://www.w3.org/2000/svg" width="110" height="110" viewBox="0 0 110 110">
  <g id="Group_118" data-name="Group 118" transform="translate(-966 -6906)">
    <g id="gear" transform="translate(966 6906)">
      <circle id="Ellipse_19" data-name="Ellipse 19" cx="55" cy="55" r="55" transform="translate(0)" fill="#fce264"/>
      <path id="Path_105" data-name="Path 105" d="M124.473,99.233V89.241l-8.2-1.63a23.754,23.754,0,0,0-1.772-4.287l4.571-6.839L111.989,69.4l-6.839,4.571a23.759,23.759,0,0,0-4.287-1.772L99.233,64H89.241l-1.63,8.2a23.754,23.754,0,0,0-4.287,1.772L76.484,69.4,69.4,76.484l4.571,6.839A23.758,23.758,0,0,0,72.2,87.611L64,89.241v9.992l8.2,1.63a23.753,23.753,0,0,0,1.772,4.287L69.4,111.989l7.087,7.087,6.839-4.571a23.759,23.759,0,0,0,4.287,1.772l1.63,8.2h9.992l1.63-8.2a23.754,23.754,0,0,0,4.287-1.772l6.839,4.571,7.087-7.087L114.5,105.15a23.759,23.759,0,0,0,1.772-4.287Zm-30.237,7.406a12.4,12.4,0,1,1,12.4-12.4A12.415,12.415,0,0,1,94.237,106.638Z" transform="translate(-50.874 -31.105)" fill="#5a5a5a"/>
      <path id="Path_107" data-name="Path 107" d="M28.449,16.575v-4.7l-3.856-.767a11.175,11.175,0,0,0-.833-2.017l2.15-3.217L22.576,2.539,19.358,4.69a11.177,11.177,0,0,0-2.017-.833L16.575,0h-4.7l-.767,3.856A11.175,11.175,0,0,0,9.09,4.69L5.873,2.539,2.539,5.873,4.69,9.09a11.177,11.177,0,0,0-.833,2.017L0,11.874v4.7l3.856.767a11.175,11.175,0,0,0,.833,2.017l-2.15,3.217,3.334,3.334,3.217-2.15a11.177,11.177,0,0,0,2.017.833l.767,3.856h4.7l.767-3.856a11.175,11.175,0,0,0,2.017-.833l3.217,2.15,3.334-3.334-2.15-3.217a11.177,11.177,0,0,0,.833-2.017ZM14.224,20.059a5.834,5.834,0,1,1,5.834-5.834A5.841,5.841,0,0,1,14.224,20.059Z" transform="translate(42.076 15.01) rotate(-18)" fill="#5a5a5a"/>
      <path id="Path_108" data-name="Path 108" d="M22.1,12.878V9.226l-3-.6a8.682,8.682,0,0,0-.648-1.567l1.671-2.5-2.59-2.59-2.5,1.671A8.684,8.684,0,0,0,13.474,3l-.6-3H9.226l-.6,3a8.682,8.682,0,0,0-1.567.648l-2.5-1.671-2.59,2.59,1.671,2.5A8.684,8.684,0,0,0,3,8.63l-3,.6v3.652l3,.6a8.682,8.682,0,0,0,.648,1.567l-1.671,2.5,2.59,2.59,2.5-1.671a8.684,8.684,0,0,0,1.567.648l.6,3h3.652l.6-3a8.682,8.682,0,0,0,1.567-.648l2.5,1.671,2.59-2.59-1.671-2.5a8.684,8.684,0,0,0,.648-1.567ZM11.052,15.585a4.533,4.533,0,1,1,4.533-4.533A4.538,4.538,0,0,1,11.052,15.585Z" transform="matrix(0.999, -0.035, 0.035, 0.999, 71.171, 23.581)" fill="#5a5a5a"/>
      <path id="Path_109" data-name="Path 109" d="M13.748,8.01V5.738l-1.864-.371a5.4,5.4,0,0,0-.4-.975l1.039-1.555L10.91,1.227,9.355,2.266a5.4,5.4,0,0,0-.975-.4L8.01,0H5.738L5.368,1.864a5.4,5.4,0,0,0-.975.4L2.838,1.227,1.227,2.838,2.266,4.393a5.4,5.4,0,0,0-.4.975L0,5.738V8.01l1.864.371a5.4,5.4,0,0,0,.4.975L1.227,10.91l1.611,1.611,1.555-1.039a5.4,5.4,0,0,0,.975.4l.371,1.864H8.01l.371-1.864a5.4,5.4,0,0,0,.975-.4l1.555,1.039,1.611-1.611L11.482,9.355a5.4,5.4,0,0,0,.4-.975ZM6.874,9.694a2.82,2.82,0,1,1,2.82-2.82A2.823,2.823,0,0,1,6.874,9.694Z" transform="matrix(0.999, -0.035, 0.035, 0.999, 79.792, 44.452)" fill="#5a5a5a"/>
    </g>
  </g>
</svg>
