<svg xmlns="http://www.w3.org/2000/svg" width="103.231" height="98.871" viewBox="0 0 103.231 98.871">
  <g id="Group_63" data-name="Group 63" transform="translate(0 -0.244)">
    <g id="calendar_2_" data-name="calendar (2)" transform="translate(0 0)">
      <g id="Group_38" data-name="Group 38" transform="translate(0 6.758)">
        <g id="Group_37" data-name="Group 37">
          <path id="Path_49" data-name="Path 49" d="M85.085,66V79.516H79.036V66H24.195V79.516H18.146V66H0v92.356H89.362l13.869-15.495V66Zm12.1,72.083h-12.1V151.6H6.049V93.031H97.182Z" transform="translate(0 -66)" fill="#0a4a65"/>
        </g>
      </g>
      <g id="Group_40" data-name="Group 40" transform="translate(54 42)">
        <g id="Group_39" data-name="Group 39">
          <rect id="Rectangle_84" data-name="Rectangle 84" width="14" height="10" transform="translate(0 0.244)" fill="#1289bb"/>
        </g>
      </g>
      <g id="Group_42" data-name="Group 42" transform="translate(36 42)">
        <g id="Group_41" data-name="Group 41">
          <rect id="Rectangle_85" data-name="Rectangle 85" width="13" height="10" transform="translate(0 0.244)" fill="#1289bb"/>
        </g>
      </g>
      <g id="Group_44" data-name="Group 44" transform="translate(71 42)">
        <g id="Group_43" data-name="Group 43">
          <rect id="Rectangle_86" data-name="Rectangle 86" width="14" height="10" transform="translate(0 0.244)" fill="#1289bb"/>
        </g>
      </g>
      <g id="Group_46" data-name="Group 46" transform="translate(54 58)">
        <g id="Group_45" data-name="Group 45">
          <rect id="Rectangle_87" data-name="Rectangle 87" width="14" height="10" transform="translate(0 0.244)" fill="#1289bb"/>
        </g>
      </g>
      <g id="Group_48" data-name="Group 48" transform="translate(36 58)">
        <g id="Group_47" data-name="Group 47">
          <rect id="Rectangle_88" data-name="Rectangle 88" width="13" height="10" transform="translate(0 0.244)" fill="#1289bb"/>
        </g>
      </g>
      <g id="Group_50" data-name="Group 50" transform="translate(18 58)">
        <g id="Group_49" data-name="Group 49">
          <rect id="Rectangle_89" data-name="Rectangle 89" width="14" height="10" transform="translate(0 0.244)" fill="#1289bb"/>
        </g>
      </g>
      <g id="Group_52" data-name="Group 52" transform="translate(71 58)">
        <g id="Group_51" data-name="Group 51">
          <rect id="Rectangle_90" data-name="Rectangle 90" width="14" height="10" transform="translate(0 0.244)" fill="#1289bb"/>
        </g>
      </g>
      <g id="Group_54" data-name="Group 54" transform="translate(54 75)">
        <g id="Group_53" data-name="Group 53">
          <rect id="Rectangle_91" data-name="Rectangle 91" width="14" height="8" transform="translate(0 0.244)" fill="#1289bb"/>
        </g>
      </g>
      <g id="Group_56" data-name="Group 56" transform="translate(36 75)">
        <g id="Group_55" data-name="Group 55">
          <rect id="Rectangle_92" data-name="Rectangle 92" width="13" height="8" transform="translate(0 0.244)" fill="#1289bb"/>
        </g>
      </g>
      <g id="Group_58" data-name="Group 58" transform="translate(18 75)">
        <g id="Group_57" data-name="Group 57">
          <rect id="Rectangle_93" data-name="Rectangle 93" width="14" height="8" transform="translate(0 0.244)" fill="#1289bb"/>
        </g>
      </g>
      <g id="Group_60" data-name="Group 60" transform="translate(78)">
        <g id="Group_59" data-name="Group 59">
          <rect id="Rectangle_94" data-name="Rectangle 94" width="7" height="7" transform="translate(0 0.244)" fill="#1289bb"/>
        </g>
      </g>
      <g id="Group_62" data-name="Group 62" transform="translate(18)">
        <g id="Group_61" data-name="Group 61">
          <rect id="Rectangle_95" data-name="Rectangle 95" width="7" height="7" transform="translate(0 0.244)" fill="#1289bb"/>
        </g>
      </g>
    </g>
    <g id="Polygon_35" data-name="Polygon 35" transform="translate(72.121 88.002) rotate(-45)" fill="#1289bb">
      <path d="M 26.79290199279785 13.5 L 1.207101941108704 13.5 L 14.00000190734863 0.7071004509925842 L 26.79290199279785 13.5 Z" stroke="none"/>
      <path d="M 14.00000190734863 1.414220809936523 L 2.414222717285156 13 L 25.58578109741211 13 L 14.00000190734863 1.414220809936523 M 14.00000190734863 9.5367431640625e-07 L 28.00000190734863 14 L 1.9073486328125e-06 14 L 14.00000190734863 9.5367431640625e-07 Z" stroke="none" fill="#1289bb"/>
    </g>
  </g>
</svg>
