<svg xmlns="http://www.w3.org/2000/svg" width="179.763" height="157.786" viewBox="0 0 179.763 157.786">
  <g id="Group_111" data-name="Group 111" transform="translate(-543.181 -5869.137)">
    <path id="Path_86" data-name="Path 86" d="M135.07,20.845c49.361,0,29.172,27.6,41.073,82.111s-31.526,18.437-53.446,35.8-18.509,45.693-42.94,38.819-41.271-21.783-59.529-43.538c-16.417-19.557-21.82-30.466-21.82-57.7,0-31.624,43.658-29.485,68.649-17.316C85.733,68.113,113.45,20.845,135.07,20.845Z" transform="translate(544.772 5848.292)" fill="#e0f6ff"/>
    <g id="clock" transform="translate(570.86 5882.051)">
      <path id="Path_68" data-name="Path 68" d="M250.341,102.333a1.841,1.841,0,0,0,1.841-1.841v-2.7a1.841,1.841,0,1,0-3.682,0v2.7A1.841,1.841,0,0,0,250.341,102.333Z" transform="translate(-187.505 -72.398)" fill="#0a4a65"/>
      <path id="Path_69" data-name="Path 69" d="M353.233,141.338a1.841,1.841,0,0,0-2.6,0l-1.911,1.91a1.841,1.841,0,0,0,2.6,2.6l1.911-1.911A1.841,1.841,0,0,0,353.233,141.338Z" transform="translate(-262.717 -106.239)" fill="#0a4a65"/>
      <path id="Path_70" data-name="Path 70" d="M391.069,248.5a1.841,1.841,0,0,0,0,3.682h2.7a1.841,1.841,0,1,0,0-3.682Z" transform="translate(-293.69 -187.505)" fill="#0a4a65"/>
      <path id="Path_71" data-name="Path 71" d="M350.744,348.719a1.841,1.841,0,0,0-2.6,2.6l1.91,1.91a1.841,1.841,0,1,0,2.6-2.6Z" transform="translate(-262.281 -262.718)" fill="#0a4a65"/>
      <path id="Path_72" data-name="Path 72" d="M247.683,391.07v2.7a1.841,1.841,0,1,0,3.682,0v-2.7a1.841,1.841,0,0,0-3.682,0Z" transform="translate(-186.888 -293.691)" fill="#0a4a65"/>
      <path id="Path_73" data-name="Path 73" d="M142.67,348.141l-1.911,1.91a1.841,1.841,0,0,0,2.6,2.6l1.911-1.91a1.841,1.841,0,0,0-2.6-2.6Z" transform="translate(-105.803 -262.282)" fill="#0a4a65"/>
      <path id="Path_74" data-name="Path 74" d="M97.789,247.684a1.841,1.841,0,1,0,0,3.682h2.7a1.841,1.841,0,1,0,0-3.682Z" transform="translate(-72.397 -186.889)" fill="#0a4a65"/>
      <path id="Path_75" data-name="Path 75" d="M145.852,142.671l-1.911-1.911a1.841,1.841,0,1,0-2.6,2.6l1.911,1.91a1.841,1.841,0,0,0,2.6-2.6Z" transform="translate(-106.239 -105.804)" fill="#0a4a65"/>
      <path id="Path_76" data-name="Path 76" d="M207.212,177.291l13.113,6.743a1.841,1.841,0,0,0,1.684-3.274l-13.108-6.74a6.754,6.754,0,0,0-4.78-7.832V147.423a1.841,1.841,0,0,0-3.682,0v18.764a6.779,6.779,0,0,0-4.656,4.656h-9.138a1.841,1.841,0,0,0,0,3.682h9.138a6.748,6.748,0,0,0,11.43,2.766Zm-4.933-1.534a3.073,3.073,0,1,1,3.072-3.073A3.076,3.076,0,0,1,202.279,175.757Z" transform="translate(-139.443 -109.848)" fill="#0a4a65"/>
      <path id="Path_77" data-name="Path 77" d="M151.759,102.384a1.841,1.841,0,0,0,1.7-1.976,49.373,49.373,0,1,0,0,7.641,1.841,1.841,0,0,0-3.671-.281,45.686,45.686,0,1,1,0-7.079,1.838,1.838,0,0,0,1.976,1.695Z" transform="translate(-41.392 -41.392)" fill="#0a4a65"/>
      <path id="Path_78" data-name="Path 78" d="M193.655,18.4a62.855,62.855,0,0,0-78.32-8.492,1.841,1.841,0,1,0,1.988,3.1,59.145,59.145,0,1,1,14.724,106.444,1.841,1.841,0,0,0-1.067,3.524A62.844,62.844,0,0,0,193.655,18.4Z" transform="translate(-86.387 0)" fill="#0a4a65"/>
      <path id="Path_79" data-name="Path 79" d="M38.967,159.893a59.166,59.166,0,0,1-13.8-99.752A1.841,1.841,0,0,0,22.825,57.3,62.849,62.849,0,0,0,37.48,163.261a1.841,1.841,0,0,0,1.487-3.368Z" transform="translate(0 -42.92)" fill="#0a4a65"/>
    </g>
  </g>
</svg>
