<svg xmlns="http://www.w3.org/2000/svg" width="184.655" height="158.023" viewBox="0 0 184.655 158.023">
  <g id="Group_108" data-name="Group 108" transform="translate(-1184.146 -5573.085)">
    <path id="Path_67" data-name="Path 67" d="M153.065,64.493c46.276-25.6,21.574,86.379,0,104.592S73.685,187.406,49.641,180.2c-13.754-4.124-24.208-24.873-35.469-45.9C5.875,118.813-5.352,103.868-5.352,91.64c0-33.172,41.894-55.958,68.1-64.36S118.952,95.242,153.065,64.493Z" transform="translate(1189.498 5546.455)" fill="#e0f6ff"/>
    <g id="compensation" transform="translate(1209.048 5594.623)">
      <ellipse id="Ellipse_8" data-name="Ellipse 8" cx="1.5" cy="1" rx="1.5" ry="1" transform="translate(24.952 21.377)" fill="#0a4a65"/>
      <path id="Path_62" data-name="Path 62" d="M134.07,84.487H123.022l-5.4-4.778a1.551,1.551,0,0,0-1.03-.378H112.38C109.458,67.9,101.687,57.894,90.722,51.384a5.025,5.025,0,0,0,2.57-4.274,4.9,4.9,0,0,0-2.013-3.867,4.72,4.72,0,0,0,0-7.733,4.72,4.72,0,0,0,0-7.733,4.9,4.9,0,0,0,2.013-3.867c0-2.843-2.613-5.155-5.825-5.155H83.1V14.133L89.351,8.6A3.5,3.5,0,0,0,90.3,4.387,4.336,4.336,0,0,0,86.262,2H50.809a4.336,4.336,0,0,0-4.036,2.387A3.5,3.5,0,0,0,47.72,8.6l4.193,3.711H43.777a1.551,1.551,0,0,0-1.03.378l-3.942,3.489H35.039V14.889A1.38,1.38,0,0,0,33.583,13.6H4.456A1.38,1.38,0,0,0,3,14.889V50.977a1.38,1.38,0,0,0,1.456,1.289H33.583a1.38,1.38,0,0,0,1.456-1.289v-.492l3.718,1.645a1.6,1.6,0,0,0,.651.137h8.738a1.3,1.3,0,1,0,0-2.578H39.752l-5.518-2.442a1.627,1.627,0,0,0-1.417.057,1.263,1.263,0,0,0-.69,1.1v1.289H23.389V16.177h8.738V43.243a1.467,1.467,0,0,0,2.913,0V18.755h4.369a1.551,1.551,0,0,0,1.03-.378l3.942-3.489h9.591v3.867H52.515a1.3,1.3,0,1,0,0,2.578H87.468a2.763,2.763,0,0,1,2.913,2.578,2.763,2.763,0,0,1-2.913,2.578H58.341a1.3,1.3,0,1,0,0,2.578H87.468a2.763,2.763,0,0,1,2.913,2.578,2.763,2.763,0,0,1-2.913,2.578H58.341a1.3,1.3,0,1,0,0,2.578H87.468a2.6,2.6,0,1,1,0,5.155H58.341a1.3,1.3,0,1,0,0,2.578H87.468a2.6,2.6,0,1,1,0,5.155H56.884c-.032,0-.06.014-.092.017a1.585,1.585,0,0,0-.28.05,1.5,1.5,0,0,0-.277.084c-.028.013-.058.012-.086.026C35.31,60.622,25.562,83.179,32.968,103.5l1.118,3.07a3.239,3.239,0,0,1-.974,3.58,5.523,5.523,0,0,0-1.5,6.657,6.85,6.85,0,0,0,6.374,3.77H64.166a1.3,1.3,0,1,0,0-2.578H37.991a3.948,3.948,0,0,1-3.685-2.179,3.191,3.191,0,0,1,.865-3.847,5.6,5.6,0,0,0,1.688-6.194l-1.118-3.07C28.789,83.637,37.855,62.485,57.3,52.265H86.85c11.342,5.966,19.468,15.751,22.541,27.066H96.206c-3.213,0-5.825,2.312-5.825,5.155a4.668,4.668,0,0,0,.807,2.578H72.9a6.19,6.19,0,0,0-4.117,1.512,4.838,4.838,0,0,0-1.708,3.644,4.9,4.9,0,0,0,2.013,3.867,4.9,4.9,0,0,0-2.013,3.867,4.838,4.838,0,0,0,1.708,3.644c.095.084.205.146.306.223a4.906,4.906,0,0,0-2.014,3.867,4.838,4.838,0,0,0,1.708,3.644c.095.084.205.146.306.223a4.906,4.906,0,0,0-2.014,3.867,4.838,4.838,0,0,0,1.708,3.644,6.19,6.19,0,0,0,4.117,1.512H122.42a1.617,1.617,0,0,0,.651-.135L128.589,118h5.482a1.38,1.38,0,0,0,1.456-1.289V85.776A1.38,1.38,0,0,0,134.07,84.487ZM20.476,49.688H5.913V16.177H20.476Zm59.71-30.933h-23.3V16.177h23.3Zm0-5.155h-23.3a1.152,1.152,0,0,0-.112-.492,1.291,1.291,0,0,0-.316-.42L49.779,6.778a1.159,1.159,0,0,1-.316-1.4,1.425,1.425,0,0,1,1.346-.8H86.262a1.425,1.425,0,0,1,1.346.8,1.155,1.155,0,0,1-.316,1.4l-6.679,5.911a1.215,1.215,0,0,0-.427.911Zm52.428,101.82h-4.369a1.617,1.617,0,0,0-.651.135L122.076,118H72.9a3.093,3.093,0,0,1-2.058-.757,2.419,2.419,0,0,1-.855-1.821,2.763,2.763,0,0,1,2.913-2.578h30.583a1.3,1.3,0,1,0,0-2.578H72.9a3.093,3.093,0,0,1-2.058-.757,2.419,2.419,0,0,1-.855-1.821,2.763,2.763,0,0,1,2.913-2.578h30.583a1.3,1.3,0,1,0,0-2.578H72.9a3.093,3.093,0,0,1-2.058-.757,2.419,2.419,0,0,1-.855-1.821A2.763,2.763,0,0,1,72.9,97.375h30.583a1.3,1.3,0,1,0,0-2.578H72.9a2.763,2.763,0,0,1-2.913-2.578,2.417,2.417,0,0,1,.855-1.821,3.1,3.1,0,0,1,2.058-.757h36.408a1.3,1.3,0,1,0,0-2.578H96.206a3.093,3.093,0,0,1-2.058-.757,2.419,2.419,0,0,1-.855-1.821,2.763,2.763,0,0,1,2.913-2.578h19.786l5.4,4.778a1.551,1.551,0,0,0,1.03.378h10.194Z" transform="translate(-1.397 -2)" fill="#0a4a65"/>
      <path id="Path_63" data-name="Path 63" d="M54.013,69.437H50.808a1.6,1.6,0,0,1-1.6-1.6,1.6,1.6,0,0,0-3.205,0,4.814,4.814,0,0,0,4.808,4.808v1.6a1.6,1.6,0,0,0,3.205,0v-1.6a4.814,4.814,0,0,0,4.808-4.808V64.629a4.814,4.814,0,0,0-4.808-4.808H50.808a1.6,1.6,0,0,1-1.6-1.6V55.013a1.6,1.6,0,0,1,1.6-1.6h3.205a1.6,1.6,0,0,1,1.6,1.6,1.6,1.6,0,0,0,3.205,0,4.814,4.814,0,0,0-4.808-4.808V48.6a1.6,1.6,0,0,0-3.205,0v1.6A4.814,4.814,0,0,0,46,55.013v3.205a4.814,4.814,0,0,0,4.808,4.808h3.205a1.6,1.6,0,0,1,1.6,1.6v3.205A1.6,1.6,0,0,1,54.013,69.437Z" transform="translate(17.542 7.564)" fill="#0a4a65"/>
      <ellipse id="Ellipse_9" data-name="Ellipse 9" cx="1" cy="2" rx="1" ry="2" transform="translate(80.952 67.377)" fill="#0a4a65"/>
      <ellipse id="Ellipse_10" data-name="Ellipse 10" cx="1.5" cy="2" rx="1.5" ry="2" transform="translate(56.952 67.377)" fill="#0a4a65"/>
      <path id="Path_64" data-name="Path 64" d="M86.821,51.245a1.6,1.6,0,1,0,3.205,0,11.232,11.232,0,0,1,11.218-11.218,1.6,1.6,0,0,0,0-3.205A11.232,11.232,0,0,1,90.026,25.6a1.6,1.6,0,0,0-3.205,0A11.232,11.232,0,0,1,75.6,36.821a1.6,1.6,0,1,0,0,3.205A11.232,11.232,0,0,1,86.821,51.245Zm1.6-19.038a14.515,14.515,0,0,0,6.217,6.217,14.515,14.515,0,0,0-6.217,6.217,14.515,14.515,0,0,0-6.217-6.217A14.515,14.515,0,0,0,88.424,32.207Z" transform="translate(28.077 2.676)" fill="#0a4a65"/>
      <path id="Path_65" data-name="Path 65" d="M14.821,103.245a1.6,1.6,0,1,0,3.205,0A11.232,11.232,0,0,1,29.245,92.026a1.6,1.6,0,1,0,0-3.205A11.232,11.232,0,0,1,18.026,77.6a1.6,1.6,0,1,0-3.205,0A11.232,11.232,0,0,1,3.6,88.821a1.6,1.6,0,0,0,0,3.205A11.232,11.232,0,0,1,14.821,103.245Zm1.6-19.038a14.515,14.515,0,0,0,6.217,6.217,14.515,14.515,0,0,0-6.217,6.217,14.515,14.515,0,0,0-6.217-6.217A14.515,14.515,0,0,0,16.424,84.207Z" transform="translate(-2 13.728)" fill="#0a4a65"/>
      <path id="Path_66" data-name="Path 66" d="M59.6,69.821a1.6,1.6,0,0,0,1.6-1.6,8.022,8.022,0,0,1,8.013-8.013,1.6,1.6,0,0,0,0-3.205A11.232,11.232,0,0,0,58,68.218,1.6,1.6,0,0,0,59.6,69.821Z" transform="translate(22.872 12.244)" fill="#0a4a65"/>
      <ellipse id="Ellipse_11" data-name="Ellipse 11" cx="2" cy="1.5" rx="2" ry="1.5" transform="translate(48.952 109.377)" fill="#0a4a65"/>
      <ellipse id="Ellipse_12" data-name="Ellipse 12" cx="1" cy="1.5" rx="1" ry="1.5" transform="translate(43.952 109.377)" fill="#0a4a65"/>
      <ellipse id="Ellipse_13" data-name="Ellipse 13" cx="2" cy="1.5" rx="2" ry="1.5" transform="translate(36.952 109.377)" fill="#0a4a65"/>
    </g>
  </g>
</svg>
