<svg xmlns="http://www.w3.org/2000/svg" width="183.416" height="151.289" viewBox="0 0 183.416 151.289">
  <g id="Group_109" data-name="Group 109" transform="translate(-1183.521 -5873.998)">
    <path id="Path_85" data-name="Path 85" d="M43.478,29.7c-49.361,0-44.9,74.843-44.9,74.843s37.448,13.083,39.913,39.963,36.025,41.681,60.456,34.807,54.441-50.856,54.441-50.856,28.5-36.211,28.5-63.447c0-31.624-32.819-32.237-57.811-20.069C105.4,54.037,65.1,29.7,43.478,29.7Z" transform="translate(1185.051 5844.296)" fill="#e0f6ff"/>
    <g id="respect" transform="translate(1200.195 5882.855)">
      <g id="Group_76" data-name="Group 76" transform="translate(134.174 12.476)">
        <g id="Group_75" data-name="Group 75" transform="translate(0 0)">
          <path id="Path_82" data-name="Path 82" d="M455.77,86.042a2.983,2.983,0,1,0,.869,2.1A2.993,2.993,0,0,0,455.77,86.042Z" transform="translate(-450.688 -85.169)" fill="#0a4a65"/>
        </g>
      </g>
      <g id="Group_78" data-name="Group 78" transform="translate(65.793 82.594)">
        <g id="Group_77" data-name="Group 77" transform="translate(0 0)">
          <path id="Path_83" data-name="Path 83" d="M226.081,321.568a2.983,2.983,0,1,0,.869,2.1A2.992,2.992,0,0,0,226.081,321.568Z" transform="translate(-220.999 -320.695)" fill="#0a4a65"/>
        </g>
      </g>
      <g id="Group_80" data-name="Group 80" transform="translate(0 0)">
        <g id="Group_79" data-name="Group 79">
          <path id="Path_84" data-name="Path 84" d="M146.468,66.5a2.977,2.977,0,1,0-5.176,2.943,40,40,0,0,1-6.493,47.927l-2.258,2.258A11.149,11.149,0,0,0,130,115.7L99.408,85.11a20.571,20.571,0,0,0,5.472-3.92l5.867-5.868a2.977,2.977,0,1,0-4.211-4.21l-5.867,5.868A14.5,14.5,0,0,1,90.35,81.253H78.622a2.979,2.979,0,0,0-2.105.872L67.537,91.1a6.838,6.838,0,0,1-9.671-9.671l20.5-20.5a40.069,40.069,0,0,1,47.558-6.7,2.977,2.977,0,1,0,2.888-5.208A46.188,46.188,0,0,0,100.5,43.7a45.374,45.374,0,0,0-24.261,11.07,45.859,45.859,0,0,0-62.8,66.783l1.122,1.122a2.978,2.978,0,0,0,.641.484A11.194,11.194,0,0,0,26.372,133.5c.149,0,.3,0,.448-.011-.006.151-.011.3-.011.453a11.21,11.21,0,0,0,11.219,11.214c.149,0,.3,0,.448-.011-.006.151-.011.3-.011.453a11.211,11.211,0,0,0,11.22,11.214c.151,0,.3,0,.453-.011a11.215,11.215,0,0,0,19.137,8.387l4.161-4.161,5.62,5.62a11.214,11.214,0,0,0,19.133-8.5c.187.009.375.015.562.015a11.2,11.2,0,0,0,11.2-11.662c.151.006.3.011.453.011a11.208,11.208,0,0,0,11.2-11.667c.151.006.3.011.453.011a11.213,11.213,0,0,0,10.367-6.932,2.974,2.974,0,0,0,.8-.57l5.774-5.774A45.962,45.962,0,0,0,146.468,66.5Zm-120.1,61.048a5.265,5.265,0,0,1-3.723-8.988l5.131-5.131a5.265,5.265,0,1,1,7.446,7.446L30.1,126A5.231,5.231,0,0,1,26.373,127.546Zm7.934,10.115a5.265,5.265,0,0,1,0-7.446l5.131-5.131h0a5.265,5.265,0,0,1,7.446,7.446l-5.131,5.131A5.272,5.272,0,0,1,34.306,137.661Zm11.656,11.656a5.265,5.265,0,0,1,0-7.446l5.131-5.131h0a5.265,5.265,0,1,1,7.446,7.446l-5.131,5.131A5.27,5.27,0,0,1,45.963,149.317ZM70.2,155.843l-5.131,5.131a5.265,5.265,0,0,1-7.446-7.446L62.75,148.4h0a5.265,5.265,0,0,1,7.446,7.446Zm55.593-28.486a5.265,5.265,0,0,1-7.446,0L105.95,114.964h0L94.294,103.308a2.977,2.977,0,0,0-4.211,4.21l24.049,24.049a5.265,5.265,0,1,1-7.446,7.446L82.637,114.964a2.977,2.977,0,0,0-4.211,4.211L90.08,130.828l0,0,12.393,12.392a5.265,5.265,0,1,1-7.446,7.446L82.637,138.277a2.972,2.972,0,0,0-.761-.55l-3.535-3.535a2.977,2.977,0,0,0-4.211,4.211l16.583,16.582a5.265,5.265,0,1,1-7.446,7.446l-6.31-6.31A11.222,11.222,0,0,0,66.474,140.9c-.152,0-.3.005-.453.011a11.208,11.208,0,0,0-11.2-11.667c-.152,0-.3.005-.453.011a11.208,11.208,0,0,0-11.2-11.667c-.152,0-.3.005-.453.011a11.213,11.213,0,0,0-19.138-8.381l-5.131,5.131a11.214,11.214,0,0,0-1.652,2.105A39.9,39.9,0,0,1,71.953,58.926l-18.3,18.3A12.794,12.794,0,0,0,71.75,95.315l8.107-8.107h10.5a20.851,20.851,0,0,0,2.57-.164l32.868,32.867A5.274,5.274,0,0,1,125.789,127.357Z" transform="translate(0 -43.261)" fill="#0a4a65"/>
        </g>
      </g>
    </g>
  </g>
</svg>
