<svg xmlns="http://www.w3.org/2000/svg" width="184.748" height="160.149" viewBox="0 0 184.748 160.149">
  <g id="Group_107" data-name="Group 107" transform="translate(-541.587 -5573.085)">
    <path id="Path_59" data-name="Path 59" d="M113.4,56.228c49.361,0,59.611,22.318,66.722,46.578s-13.367,43.7-35.287,61.061-40.652,20.583-65.082,13.709-36.183-29.1-54.441-50.856C8.9,107.163-3.185,90.509-3.185,63.274c0-31.624,29.168-50.973,54.159-38.805C69.65,33.561,91.785,56.228,113.4,56.228Z" transform="translate(544.772 5552.292)" fill="#e0f6ff"/>
    <g id="shield" transform="translate(569.421 5594.406)">
      <g id="Group_74" data-name="Group 74" transform="translate(0 0)">
        <g id="Group_73" data-name="Group 73">
          <path id="Path_53" data-name="Path 53" d="M143.194,21.759A209.612,209.612,0,0,1,92.761.368a2.649,2.649,0,0,0-2.695,0A203.873,203.873,0,0,1,39.631,21.759a2.65,2.65,0,0,0-1.95,2.557V51.4c0,27.89,12.867,46.352,23.661,56.928,11.621,11.386,25.157,17.683,30.072,17.683s18.451-6.3,30.071-17.683c10.794-10.576,23.66-29.037,23.66-56.928V24.315A2.65,2.65,0,0,0,143.194,21.759ZM139.843,51.4c0,26.05-12,43.276-22.069,53.141-11.427,11.2-23.645,16.169-26.361,16.169s-14.934-4.972-26.362-16.169C54.984,94.675,42.983,77.449,42.983,51.4V26.328A208.758,208.758,0,0,0,91.414,5.722a215.365,215.365,0,0,0,48.429,20.6Z" transform="translate(-37.681 0)" fill="#0a4a65"/>
          <path id="Path_54" data-name="Path 54" d="M100.068,100.623a2.65,2.65,0,0,0-3.438-1.495c-4.735,1.866-9.6,3.583-14.446,5.1a2.651,2.651,0,0,0-1.857,2.529V117a2.651,2.651,0,0,0,5.3,0v-8.3c4.351-1.408,8.7-2.965,12.945-4.639A2.65,2.65,0,0,0,100.068,100.623Z" transform="translate(-69.831 -74.592)" fill="#0a4a65"/>
          <path id="Path_55" data-name="Path 55" d="M172.859,91.523a2.652,2.652,0,0,0,1.063-.223l.049-.021a2.651,2.651,0,1,0-2.14-4.85l-.043.018a2.65,2.65,0,0,0,1.072,5.075Z" transform="translate(-137.587 -64.989)" fill="#0a4a65"/>
          <path id="Path_56" data-name="Path 56" d="M323.264,345.96a2.652,2.652,0,0,0-3.669.769,64.514,64.514,0,0,1-7.617,9.515,67.709,67.709,0,0,1-7.6,6.764,2.651,2.651,0,1,0,3.215,4.216,73.062,73.062,0,0,0,8.2-7.3,69.755,69.755,0,0,0,8.245-10.3A2.65,2.65,0,0,0,323.264,345.96Z" transform="translate(-237.95 -260.489)" fill="#0a4a65"/>
          <path id="Path_57" data-name="Path 57" d="M278.039,432.33l-.152.09a2.65,2.65,0,1,0,2.656,4.588l.175-.1a2.65,2.65,0,1,0-2.679-4.574Z" transform="translate(-217.771 -325.653)" fill="#0a4a65"/>
          <path id="Path_58" data-name="Path 58" d="M137.531,174.145a8.62,8.62,0,0,0-12.19,12.19l15.652,15.651a8.622,8.622,0,0,0,12.19,0l32.675-32.675a8.62,8.62,0,0,0-12.191-12.189L147.088,183.7Zm39.885-13.274a3.318,3.318,0,1,1,4.693,4.692l-32.674,32.674a3.321,3.321,0,0,1-4.693,0L129.09,182.587a3.318,3.318,0,0,1,4.693-4.693l11.431,11.431a2.651,2.651,0,0,0,3.748,0Z" transform="translate(-101.867 -116.55)" fill="#0a4a65"/>
        </g>
      </g>
    </g>
  </g>
</svg>
