<svg xmlns="http://www.w3.org/2000/svg" width="110" height="110" viewBox="0 0 110 110">
  <g id="Group_112" data-name="Group 112" transform="translate(-576 -7101)">
    <circle id="Ellipse_19" data-name="Ellipse 19" cx="55" cy="55" r="55" transform="translate(576 7101)" fill="#fc4444"/>
    <g id="XMLID_125_" transform="translate(601 7112.938)">
      <path id="XMLID_1827_" d="M169.146,15.062H156.388a6.019,6.019,0,0,0-6.013,6.013v1.07h3.52v-1.07a2.5,2.5,0,0,1,2.493-2.493h12.758a2.5,2.5,0,0,1,2.493,2.493v1.07h3.52v-1.07a6.02,6.02,0,0,0-6.013-6.013Z" transform="translate(-132.733 0)" fill="#3df491"/>
      <path id="XMLID_1835_" d="M191.242,231.121v-5.309h-3.549v5.309a1.76,1.76,0,0,1-1.76,1.76h-5.309v3.549h5.309a1.76,1.76,0,0,1,1.76,1.76V243.5h3.549v-5.309a1.76,1.76,0,0,1,1.76-1.76h5.309V232.88H193A1.76,1.76,0,0,1,191.242,231.121Z" transform="translate(-159.434 -186.025)" fill="#fff"/>
      <path id="XMLID_1836_" d="M0,115.7v28.039a8.96,8.96,0,0,0,7.186,8.771V106.927A8.96,8.96,0,0,0,0,115.7Z" transform="translate(0 -81.088)" fill="#3df491"/>
      <path id="XMLID_1837_" d="M450.751,106.927v45.581a8.96,8.96,0,0,0,7.186-8.771V115.7A8.96,8.96,0,0,0,450.751,106.927Z" transform="translate(-397.87 -81.088)" fill="#3df491"/>
      <path id="XMLID_1840_" d="M129.906,105.438H91.249v45.93h38.657Zm-6.966,26.5a1.76,1.76,0,0,1-1.76,1.76h-5.309v5.309a1.76,1.76,0,0,1-1.76,1.76h-7.068a1.76,1.76,0,0,1-1.76-1.76V133.7H99.975a1.76,1.76,0,0,1-1.76-1.76v-7.068a1.76,1.76,0,0,1,1.76-1.76h5.309V117.8a1.76,1.76,0,0,1,1.76-1.76h7.068a1.76,1.76,0,0,1,1.76,1.76v5.309h5.309a1.76,1.76,0,0,1,1.76,1.76Z" transform="translate(-80.544 -79.773)" fill="#9eedb3"/>
    </g>
  </g>
</svg>
