<svg id="Group_72" data-name="Group 72" xmlns="http://www.w3.org/2000/svg" width="112" height="95.445" viewBox="0 0 112 95.445">
  <g id="resume_1_" data-name="resume (1)">
    <g id="survey" transform="translate(0 0)">
      <path id="Path_79" data-name="Path 79" d="M188.221,460.071H145.684a2.145,2.145,0,0,0-2.145,2.145v2.4a2.145,2.145,0,0,0,2.145,2.145h42.537a2.145,2.145,0,0,0,2.145-2.145v-2.4A2.145,2.145,0,0,0,188.221,460.071Z" transform="translate(-109.941 -371.317)" fill="#0a4a65"/>
      <path id="Subtraction_45" data-name="Subtraction 45" d="M104.452,89.022H6.43C2.884,89.022,0,85.783,0,81.808V7.214C0,3.239,2.886,0,6.43,0h98.022a5.78,5.78,0,0,1,2.5.567A6.434,6.434,0,0,1,109,2.114a7.308,7.308,0,0,1,1.379,2.293,7.911,7.911,0,0,1,.506,2.805V81.807C110.881,85.786,108,89.022,104.452,89.022ZM6.957,16.593V80.174a.988.988,0,0,0,.925,1.038H103a.988.988,0,0,0,.926-1.038V16.593Z" transform="translate(0 0)" fill="#0a4a65"/>
      <path id="Path_85" data-name="Path 85" d="M171.208,56.837H77.5V51.928h94.714v4.361C172.214,56.591,171.764,56.837,171.208,56.837Z" transform="translate(-68.048 -34.783)" fill="#1289bb"/>
      <path id="Path_86" data-name="Path 86" d="M9.659,0H.889C.4,0,0,.246,0,.549v4.36H9.659Z" transform="translate(16.35 22.055) rotate(180)" fill="#1289bb"/>
      <g id="Group_68" data-name="Group 68" transform="translate(17.918 25.742)">
        <path id="Path_88" data-name="Path 88" d="M90,128.18,86.722,124.9a3.018,3.018,0,1,1,4.268-4.268l1.148,1.148,2.8-2.8a3.018,3.018,0,1,1,4.267,4.268l-4.935,4.935A3.018,3.018,0,0,1,90,128.18Z" transform="translate(-85.838 -118.093)" fill="#0a4a65"/>
      </g>
      <g id="Group_69" data-name="Group 69" transform="translate(17.918 45.708)">
        <path id="Path_89" data-name="Path 89" d="M90,204.433l-3.282-3.282a3.018,3.018,0,1,1,4.268-4.268l1.151,1.15,2.8-2.8a3.018,3.018,0,1,1,4.268,4.268l-4.935,4.935a3.018,3.018,0,0,1-4.267,0Z" transform="translate(-85.838 -194.345)" fill="#0a4a65"/>
      </g>
      <g id="Group_70" data-name="Group 70" transform="translate(17.918 65.679)">
        <path id="Path_90" data-name="Path 90" d="M90,280.689l-3.282-3.282a3.018,3.018,0,1,1,4.268-4.268l1.148,1.148,2.8-2.8a3.018,3.018,0,1,1,4.268,4.267l-4.935,4.935A3.018,3.018,0,0,1,90,280.689Z" transform="translate(-85.838 -270.602)" fill="#0a4a65"/>
      </g>
      <g id="Group_71" data-name="Group 71" transform="translate(46.593 28.628)">
        <path id="Path_91" data-name="Path 91" d="M237.249,129.194H192.874a2,2,0,0,0-2,2v2.339a2,2,0,0,0,2,2h44.376a2,2,0,0,0,2-2V131.2A2,2,0,0,0,237.249,129.194Z" transform="translate(-190.869 -129.194)" fill="#0a4a65"/>
        <path id="Path_92" data-name="Path 92" d="M237.249,205.449H192.874a2,2,0,0,0-2,2v2.339a2,2,0,0,0,2,2h44.376a2,2,0,0,0,2-2v-2.339a2,2,0,0,0-2-2Z" transform="translate(-190.869 -185.922)" fill="#0a4a65"/>
        <path id="Path_93" data-name="Path 93" d="M237.249,281.7H192.874a2,2,0,0,0-2,2v2.339a2,2,0,0,0,2,2h44.376a2,2,0,0,0,2-2V283.7A2,2,0,0,0,237.249,281.7Z" transform="translate(-190.869 -242.649)" fill="#0a4a65"/>
      </g>
    </g>
    <g id="Rectangle_98" data-name="Rectangle 98" transform="translate(0 0.228)" fill="none" stroke="#0a4a65" stroke-width="4">
      <rect width="112" height="89" stroke="none"/>
      <rect x="2" y="2" width="108" height="85" fill="none"/>
    </g>
    <rect id="Rectangle_99" data-name="Rectangle 99" width="92" height="5" transform="translate(10 5.228)" fill="#1289bb"/>
  </g>
</svg>
