<svg xmlns="http://www.w3.org/2000/svg" width="183.568" height="153.897" viewBox="0 0 183.568 153.897">
  <g id="Group_106" data-name="Group 106" transform="translate(-862.994 -5577.211)">
    <path id="Path_60" data-name="Path 60" d="M148.063,42.1c48.582,0,21.683,39.048,28.682,63.825s-13.157,44.627-34.731,62.36-68.34,15.115-92.385,8.095,14.619-39.266-3.351-61.484C30.12,94.921-5.41,117.167-5.41,89.353c0-32.3,19.193-52.131,45.4-60.311S81.213,56.89,99.4,56.634C117.674,56.376,137.274,42.1,148.063,42.1Z" transform="translate(868.403 5549.378)" fill="#e0f6ff"/>
    <g id="help" transform="translate(868.627 5597.842)">
      <path id="Path_61" data-name="Path 61" d="M35.154,137.952a41.633,41.633,0,0,1,4.928-2.177v-5.835a2.526,2.526,0,1,1,5.052,0v4.231a63.06,63.06,0,0,1,12.616-2.1c1.1-.029,2.225-.009,3.333-.009v-2.12a2.526,2.526,0,1,1,5.052,0v2.12h4.919v-6.2a8.086,8.086,0,0,0-8.061-8.07H59.565a13.669,13.669,0,0,1-12.922,0H43.224a8.1,8.1,0,0,0-8.07,8.07v12.09Zm40.952-5.893h4.928v-2.12a2.526,2.526,0,1,1,5.052,0v2.12h15.949v-2.12a2.526,2.526,0,1,1,5.052,0V132.6a15.852,15.852,0,0,1,4.928,2.35v-9.092a8.1,8.1,0,0,0-8.07-8.07h-3.428a13.65,13.65,0,0,1-12.912,0H84.176a8.1,8.1,0,0,0-8.07,8.07v6.2Zm40.961,8.92a15.454,15.454,0,0,1-.048,13.38c1.6-.8,3.323-1.509,4.966-2.235V129.939a2.526,2.526,0,1,1,5.052,0v19.922l15.949-7.115V129.939a2.526,2.526,0,1,1,5.052,0v10.553l2.674-1.194a16.21,16.21,0,0,1,2.254-.8V125.861a8.1,8.1,0,0,0-8.07-8.07h-3.419a13.669,13.669,0,0,1-12.922,0h-3.428a8.086,8.086,0,0,0-8.061,8.07V140.98Zm40.951-3.009a15.59,15.59,0,0,1,13.227,9.188,13.809,13.809,0,0,1,.277,10.849,21.588,21.588,0,0,1-7.688,9.426l-13.647,9.875a2.524,2.524,0,0,1-2.961-4.088l13.647-9.875a16.568,16.568,0,0,0,5.931-7.134,8.931,8.931,0,0,0-.162-7,10.523,10.523,0,0,0-13.877-5.31l-33.111,14.775a47.221,47.221,0,0,1-5.673,2.5,21.785,21.785,0,0,1-6.618,1.261h-37a2.526,2.526,0,0,1,0-5.052h36.558a10.524,10.524,0,0,0-3.935-20.275H57.913a53.2,53.2,0,0,0-12.138,2.12,39.509,39.509,0,0,0-9.569,3.925,13.438,13.438,0,0,1,1.652,6.465v9.646a2.526,2.526,0,1,1-5.052,0v-9.646a8.252,8.252,0,0,0-8.137-8.328H13.189a8.253,8.253,0,0,0-8.137,8.328v31.124a8.4,8.4,0,0,0,2.407,5.893,8.011,8.011,0,0,0,5.73,2.435H24.668a8.033,8.033,0,0,0,5.74-2.435,8.411,8.411,0,0,0,2.4-5.893v-9.655a2.526,2.526,0,0,1,5.052,0v9.655a13.342,13.342,0,0,1-.869,4.756,29.849,29.849,0,0,0,4.107,2.464,17.361,17.361,0,0,0,5.959,1.766l53.6,4.909c7.688.716,15.061,1.394,23.36-4.613l13.647-9.875a2.524,2.524,0,0,1,2.961,4.087l-13.647,9.875c-9.827,7.115-18.117,6.341-26.779,5.539l-53.586-4.908a22,22,0,0,1-7.7-2.245,32.723,32.723,0,0,1-4.565-2.693,13.077,13.077,0,0,1-9.674,4.317H13.189a13.04,13.04,0,0,1-9.321-3.954A13.411,13.411,0,0,1,0,180.746V149.622a13.331,13.331,0,0,1,13.189-13.38H24.668a12.954,12.954,0,0,1,5.434,1.194V125.862a13.153,13.153,0,0,1,11.3-13,13.683,13.683,0,0,1-2.053-7.21V93.62A8.837,8.837,0,0,1,48.161,84.8H64.339a2.527,2.527,0,0,1,2.521,2.531v18.317a13.6,13.6,0,0,1-2.053,7.21,13.075,13.075,0,0,1,7.449,3.725,13.672,13.672,0,0,1,1.327,1.547,12.773,12.773,0,0,1,1.327-1.547,13.08,13.08,0,0,1,7.44-3.725,13.683,13.683,0,0,1-2.053-7.21V93.62A8.837,8.837,0,0,1,89.113,84.8h9.894a8.837,8.837,0,0,1,8.815,8.815v12.033a13.68,13.68,0,0,1-2.053,7.21,13.078,13.078,0,0,1,7.44,3.725,12.773,12.773,0,0,1,1.327,1.547,13.64,13.64,0,0,1,1.327-1.547,13.079,13.079,0,0,1,7.449-3.725,13.6,13.6,0,0,1-2.053-7.21V93.62a8.837,8.837,0,0,1,8.806-8.815h9.894a8.837,8.837,0,0,1,8.815,8.815v12.033a13.683,13.683,0,0,1-2.053,7.21,13.153,13.153,0,0,1,11.3,13v12.109Zm-14.3-35.164L133.13,99.226l-6.819,3.342v3.085a8.705,8.705,0,0,0,17.41,0v-2.846Zm-17.41-5.845,5.4-2.645a2.537,2.537,0,0,1,2.063-.2l9.951,3.371V93.62a3.783,3.783,0,0,0-3.763-3.763h-9.894a3.783,3.783,0,0,0-3.753,3.763ZM44.4,94.718h17.41V89.857H48.162A3.783,3.783,0,0,0,44.4,93.62Zm17.41,5.052H44.4v5.883a8.705,8.705,0,0,0,17.41,0Zm40.952,2.97a14.916,14.916,0,0,1-11.527-3.152,11.325,11.325,0,0,1-5.873,1.452v4.613a8.7,8.7,0,0,0,17.4,0V102.74ZM85.36,96a6.3,6.3,0,0,0,4.517-1.547,2.513,2.513,0,0,1,3.553.248,9.84,9.84,0,0,0,9.331,2.97V93.619a3.767,3.767,0,0,0-3.754-3.763H89.113a3.767,3.767,0,0,0-3.753,3.763Z" transform="translate(0 -84.805)" fill="#0a4a65"/>
    </g>
  </g>
</svg>
