<svg xmlns="http://www.w3.org/2000/svg" width="16.303" height="14.184" viewBox="0 0 23.303 21.184">
  <g id="Group_67" data-name="Group 67" transform="translate(-578 -4612.817)">
    <g id="Subtraction_47" data-name="Subtraction 47" transform="translate(4262 8178)" fill="#fff">
      <path d="M -3673.49951171875 -3545.4990234375 C -3678.46240234375 -3545.4990234375 -3682.5 -3549.53662109375 -3682.5 -3554.499267578125 C -3682.5 -3554.634033203125 -3682.4970703125 -3554.7685546875 -3682.4912109375 -3554.90185546875 L -3682.49072265625 -3554.901611328125 C -3682.496826171875 -3554.767578125 -3682.499755859375 -3554.633544921875 -3682.499755859375 -3554.500244140625 C -3682.499755859375 -3549.537109375 -3678.462158203125 -3545.499267578125 -3673.49951171875 -3545.499267578125 C -3671.236572265625 -3545.499267578125 -3669.165771484375 -3546.339111328125 -3667.582763671875 -3547.72314453125 C -3669.165771484375 -3546.3388671875 -3671.236572265625 -3545.4990234375 -3673.49951171875 -3545.4990234375 Z M -3669.69091796875 -3562.6572265625 C -3670.875244140625 -3563.210693359375 -3672.171875 -3563.499267578125 -3673.49951171875 -3563.499267578125 C -3673.6953125 -3563.499267578125 -3673.890380859375 -3563.4931640625 -3674.083984375 -3563.480712890625 C -3673.890625 -3563.4931640625 -3673.69580078125 -3563.49951171875 -3673.49951171875 -3563.49951171875 C -3672.16357421875 -3563.49951171875 -3670.872314453125 -3563.2119140625 -3669.690185546875 -3562.657958984375 L -3669.69091796875 -3562.6572265625 Z" stroke="none"/>
      <path d="M -3673.49951171875 -3543.9990234375 C -3679.28955078125 -3543.9990234375 -3684 -3548.70947265625 -3684 -3554.499267578125 C -3684 -3560.2890625 -3679.28955078125 -3564.99951171875 -3673.49951171875 -3564.99951171875 C -3671.226806640625 -3564.99951171875 -3669.06396484375 -3564.285400390625 -3667.244873046875 -3562.93408203125 L -3669.44384765625 -3560.810546875 C -3670.6494140625 -3561.588134765625 -3672.05126953125 -3561.999267578125 -3673.49951171875 -3561.999267578125 C -3675.538330078125 -3561.999267578125 -3677.44677734375 -3561.192138671875 -3678.873291015625 -3559.7265625 C -3679.009033203125 -3559.81494140625 -3679.13134765625 -3559.85791015625 -3679.24853515625 -3559.85791015625 C -3679.38134765625 -3559.85791015625 -3679.502685546875 -3559.8046875 -3679.619384765625 -3559.6953125 L -3681.813232421875 -3557.648193359375 C -3682.0078125 -3557.46728515625 -3682.109130859375 -3557.25439453125 -3682.1064453125 -3557.032470703125 C -3682.102783203125 -3556.8193359375 -3682.00146484375 -3556.599365234375 -3681.813232421875 -3556.396484375 L -3680.943603515625 -3555.41943359375 C -3680.980712890625 -3555.1162109375 -3680.999755859375 -3554.807373046875 -3680.999755859375 -3554.500244140625 C -3680.999755859375 -3550.3642578125 -3677.63525390625 -3546.999267578125 -3673.49951171875 -3546.999267578125 C -3669.364013671875 -3546.999267578125 -3665.99951171875 -3550.3642578125 -3665.99951171875 -3554.500244140625 C -3665.99951171875 -3554.900634765625 -3666.031982421875 -3555.30517578125 -3666.095947265625 -3555.702392578125 L -3663.628173828125 -3558.085693359375 C -3663.2109375 -3556.93505859375 -3663.000244140625 -3555.728515625 -3663.000244140625 -3554.499267578125 C -3663.000244140625 -3548.70947265625 -3667.710205078125 -3543.9990234375 -3673.49951171875 -3543.9990234375 Z" stroke="none" fill="#0a4a65"/>
    </g>
    <g id="tick" transform="translate(577 4580.371)">
      <path id="Path_51" data-name="Path 51" d="M109.948,73.912a1.374,1.374,0,0,1,0,1.914L97.314,88.7a.4.4,0,0,1-.578,0L90.6,82.444a1.374,1.374,0,0,1,0-1.914,1.311,1.311,0,0,1,1.877,0l3.668,3.739a1.235,1.235,0,0,0,1.77,0l10.16-10.358A1.311,1.311,0,0,1,109.948,73.912Z" transform="translate(-86.032 -41.07)" fill="#1289bb"/>
    </g>
  </g>
</svg>
