<svg id="job-search-in-newspapers" xmlns="http://www.w3.org/2000/svg" width="110.57" height="95.114" viewBox="0 0 110.57 95.114">
  <g id="Group_36" data-name="Group 36" transform="translate(0 0)">
    <path id="Path_43" data-name="Path 43" d="M819.153,300.329a15.529,15.529,0,0,0,5.31,11.726c6.806-.269,11.846-2.019,11.846-13.671V256.145a6.929,6.929,0,0,0-6.925-6.925H819.138l.015,51.109Z" transform="translate(-725.739 -223.767)" fill="#1289bb"/>
    <path id="Subtraction_44" data-name="Subtraction 44" d="M47.741,87.23h0a5.692,5.692,0,0,0-.631-.014c-.444,0-1.048,0-1.733.011H45.29a26.229,26.229,0,0,0,4.925-15.408c0-.55-.017-1.107-.05-1.655H75.474a3.794,3.794,0,0,0,0-7.478H48.609A26.165,26.165,0,0,0,42.457,53.1H75.474a3.486,3.486,0,0,0,3.148-3.739,3.486,3.486,0,0,0-3.148-3.74H30.587c-.01,0-1.022-.066-2.486-.066a33.153,33.153,0,0,0-7.187.682l-.391.094a24.462,24.462,0,0,0-7.773,2.9,25.341,25.341,0,0,0-6.334,5.221A25.986,25.986,0,0,0,2,61.5,26.382,26.382,0,0,0,0,69.87L.334,2.558A2.385,2.385,0,0,1,2.488,0H88.132a2.385,2.385,0,0,1,2.154,2.558V75.429a22.563,22.563,0,0,0,.861,6.194,20.872,20.872,0,0,0,2.476,5.532l-13.955.031ZM64.365,28.883a3.486,3.486,0,0,0-3.148,3.739,3.486,3.486,0,0,0,3.148,3.74H75.348a3.487,3.487,0,0,0,3.149-3.74,3.486,3.486,0,0,0-3.149-3.739ZM29.856,12.549a8.3,8.3,0,0,0-6.738,3.291,13.551,13.551,0,0,0-2.594,8.465c0,.033,0,.067,0,.1a1.93,1.93,0,0,0,0,.256,14.845,14.845,0,0,0,1.083,5.624,9.828,9.828,0,0,0,3.325,4.367,8.234,8.234,0,0,0,4.924,1.586,8.493,8.493,0,0,0,4.7-1.421,9.441,9.441,0,0,0,3.463-4.292,15.324,15.324,0,0,0,1.172-6.1v-.1a15.7,15.7,0,0,0-1.109-5.893,9.8,9.8,0,0,0-3.362-4.338A8.306,8.306,0,0,0,29.856,12.549Zm-19.3,13.817a1.337,1.337,0,0,0-.222.019L8.394,26.7a1.8,1.8,0,0,0-1.36,1.825,8.747,8.747,0,0,0,1.511,5.638,5.329,5.329,0,0,0,4.433,2.064,6.118,6.118,0,0,0,2.292-.433,5.652,5.652,0,0,0,.97-.494,5.774,5.774,0,0,0,2.242-2.917,12.992,12.992,0,0,0,.629-4.5V14.748a1.743,1.743,0,0,0-1.574-1.87H15.385a1.743,1.743,0,0,0-1.574,1.87v13.3a8.962,8.962,0,0,1-.137,1.79v.005a.426.426,0,0,1-.164.224.879.879,0,0,1-.554.15.615.615,0,0,1-.542-.194,4.528,4.528,0,0,1-.289-1.855,2.089,2.089,0,0,0-.567-1.361A1.407,1.407,0,0,0,10.556,26.366ZM41.985,12.878a1.744,1.744,0,0,0-1.575,1.87v19.28A1.743,1.743,0,0,0,41.984,35.9h6.185a10.416,10.416,0,0,0,3.01-.374,6.1,6.1,0,0,0,2.33-1.271,6.6,6.6,0,0,0,1.662-2.468,8.544,8.544,0,0,0,.643-3.335A7.344,7.344,0,0,0,54.7,24.4a.308.308,0,0,0-.025-.047.336.336,0,0,1-.024-.043,5.185,5.185,0,0,0-.68-.852c.1-.167.181-.308.265-.464a7.087,7.087,0,0,0,.794-3.306,7.536,7.536,0,0,0-.869-3.53A5.736,5.736,0,0,0,51.7,13.626a7.6,7.6,0,0,0-3.614-.748Zm22.38-.389a3.486,3.486,0,0,0-3.148,3.739,3.486,3.486,0,0,0,3.148,3.74H75.348a3.487,3.487,0,0,0,3.149-3.74,3.487,3.487,0,0,0-3.149-3.739Z" transform="translate(0)" fill="#0a4a65"/>
    <path id="Path_45" data-name="Path 45" d="M444.689,215.771a1.02,1.02,0,0,0,.53-.39,1.662,1.662,0,0,0,.14-.781,2.344,2.344,0,0,0-.172-.945.523.523,0,0,0-.312-.288,7.25,7.25,0,0,0-2.465-.247h-2.075v2.856h2.4A5.4,5.4,0,0,0,444.689,215.771Z" transform="translate(-395.075 -194.771)" fill="#0a4a65"/>
    <path id="Path_46" data-name="Path 46" d="M287.586,224.528a3.916,3.916,0,0,0,3.34-1.728,9.069,9.069,0,0,0,1.351-5.458v-.127a11.875,11.875,0,0,0-.624-3.948,5.047,5.047,0,0,0-1.6-2.329,3.867,3.867,0,0,0-2.42-.819,4.191,4.191,0,0,0-3.34,1.637c-.861,1-1.306,2.838-1.351,5.458v.455a8.217,8.217,0,0,0,1.366,5.13A3.816,3.816,0,0,0,287.586,224.528Z" transform="translate(-257.676 -192.987)" fill="#0a4a65"/>
    <path id="Path_47" data-name="Path 47" d="M444.682,271.061a2.186,2.186,0,0,0,.861-.358,1.155,1.155,0,0,0,.329-.5,2.5,2.5,0,0,0,.157-.975,1.954,1.954,0,0,0-.235-1.075,1.086,1.086,0,0,0-.611-.537,6.245,6.245,0,0,0-2.333-.3h-2.71v3.841h3.07A8.411,8.411,0,0,0,444.682,271.061Z" transform="translate(-394.933 -240.114)" fill="#0a4a65"/>
    <path id="Path_48" data-name="Path 48" d="M3.6,446.11a3.563,3.563,0,0,0,2.559-1.068l5.071-5.131.853-.858.623-.639a2.528,2.528,0,0,0,.211-.238A18.938,18.938,0,0,0,40.1,431.584c.211-.391.412-.792.6-1.192s.345-.792.5-1.192c.01-.019.019-.048.029-.067a18.651,18.651,0,0,0-1.179-15.575A18.955,18.955,0,0,0,23.5,403.82a19.235,19.235,0,0,0-4.476.534A18.731,18.731,0,0,0,15,405.832a18.931,18.931,0,0,0-8.54,8.67,19.378,19.378,0,0,0-1.2,3.2,18.693,18.693,0,0,0,2.588,15.461,2.338,2.338,0,0,0-.278.258l-.585.591-.853.868-5.109,5.17a3.56,3.56,0,0,0,.048,5.055A3.61,3.61,0,0,0,3.6,446.11ZM19.03,410.2a13.3,13.3,0,0,1,14.1,3.357,13.278,13.278,0,0,1,2.914,4.769,13.1,13.1,0,0,1-1.016,10.8c-.019.028-.029.057-.048.086a12.213,12.213,0,0,1-.786,1.192,11.99,11.99,0,0,1-1,1.192,13.286,13.286,0,0,1-19.487-.1,15.043,15.043,0,0,1-1.2-1.507c-.2-.286-.383-.591-.556-.9-.048-.086-.1-.172-.144-.267-.105-.191-.2-.391-.3-.582a13.073,13.073,0,0,1-1.275-5.637A13.23,13.23,0,0,1,19.03,410.2Z" transform="translate(1.991 -350.996)" fill="#1289bb"/>
  </g>
</svg>
