<?xml version="1.0" standalone="no"?>
<svg xmlns:xlink="http://www.w3.org/1999/xlink" id="wave" style="transform:rotate(180deg); transition: 0.3s" viewBox="0 0 1440 490" version="1.1" xmlns="http://www.w3.org/2000/svg"><defs><linearGradient id="sw-gradient-0" x1="0" x2="0" y1="1" y2="0"><stop stop-color="rgba(82.747, 62, 243, 1)" offset="0%"/><stop stop-color="rgba(11, 16.098, 255, 1)" offset="100%"/></linearGradient></defs><path style="transform:translate(0, 0px); opacity:1" fill="url(#sw-gradient-0)" d="M0,294L26.7,245C53.3,196,107,98,160,73.5C213.3,49,267,98,320,114.3C373.3,131,427,114,480,138.8C533.3,163,587,229,640,236.8C693.3,245,747,196,800,179.7C853.3,163,907,180,960,179.7C1013.3,180,1067,163,1120,138.8C1173.3,114,1227,82,1280,81.7C1333.3,82,1387,114,1440,179.7C1493.3,245,1547,343,1600,392C1653.3,441,1707,441,1760,408.3C1813.3,376,1867,310,1920,236.8C1973.3,163,2027,82,2080,89.8C2133.3,98,2187,196,2240,269.5C2293.3,343,2347,392,2400,359.3C2453.3,327,2507,212,2560,138.8C2613.3,65,2667,33,2720,40.8C2773.3,49,2827,98,2880,171.5C2933.3,245,2987,343,3040,367.5C3093.3,392,3147,343,3200,294C3253.3,245,3307,196,3360,179.7C3413.3,163,3467,180,3520,187.8C3573.3,196,3627,196,3680,171.5C3733.3,147,3787,98,3813,73.5L3840,49L3840,490L3813.3,490C3786.7,490,3733,490,3680,490C3626.7,490,3573,490,3520,490C3466.7,490,3413,490,3360,490C3306.7,490,3253,490,3200,490C3146.7,490,3093,490,3040,490C2986.7,490,2933,490,2880,490C2826.7,490,2773,490,2720,490C2666.7,490,2613,490,2560,490C2506.7,490,2453,490,2400,490C2346.7,490,2293,490,2240,490C2186.7,490,2133,490,2080,490C2026.7,490,1973,490,1920,490C1866.7,490,1813,490,1760,490C1706.7,490,1653,490,1600,490C1546.7,490,1493,490,1440,490C1386.7,490,1333,490,1280,490C1226.7,490,1173,490,1120,490C1066.7,490,1013,490,960,490C906.7,490,853,490,800,490C746.7,490,693,490,640,490C586.7,490,533,490,480,490C426.7,490,373,490,320,490C266.7,490,213,490,160,490C106.7,490,53,490,27,490L0,490Z"/></svg>